<svg width="89" height="24" viewBox="0 0 89 24" fill="none" xmlns="http://www.w3.org/2000/svg">
<g id="appwrite white">
<path id="Vector" d="M31.9985 18.1735L32.0151 12.5979L32.6042 12.5825L33.1934 12.567L33.2107 13.3797L33.2272 14.1936L33.3867 13.9364C33.8552 13.1795 34.7304 12.649 35.75 12.5153C37.7877 12.2527 39.4511 13.2259 39.9965 15.0022C40.2279 15.7638 40.2171 17.1332 39.9635 17.8699C39.699 18.6523 39.2305 19.2702 38.5695 19.692C38.1901 19.9391 37.9861 20.0318 37.5233 20.1708C37.0498 20.3098 35.6839 20.3098 35.2096 20.1708C34.4387 19.9391 33.8444 19.522 33.414 18.9042L33.2272 18.6315L33.2107 21.1903L33.1992 23.7437H31.9877L31.9985 18.1735ZM37.0225 19.1876C37.4079 19.0836 37.761 18.8948 38.0522 18.6369C38.2835 18.4307 38.6529 17.9828 38.6529 17.9008C38.6529 17.88 38.6909 17.7927 38.7355 17.7047C38.8792 17.4112 38.9834 16.8505 38.9834 16.3918C38.9776 15.0331 38.2397 13.9619 37.0829 13.6221C36.8292 13.5503 36.5871 13.5241 36.064 13.5241C35.298 13.5241 35.0724 13.5811 34.5213 13.9002C33.2495 14.6416 32.8141 16.4334 33.552 17.8854C33.9041 18.5751 34.7146 19.1359 35.5682 19.2702C35.926 19.3266 36.664 19.2856 37.0225 19.1876ZM41.9689 18.1735L41.9854 12.5979L42.5803 12.5825L43.1695 12.567V14.2453L43.3406 13.9673C43.8744 13.1023 44.8164 12.5717 45.9848 12.4945C47.2781 12.4018 48.2812 12.7316 49.0687 13.5039C49.4107 13.8384 49.7405 14.3582 49.9338 14.8632C50.1429 15.4038 50.2255 16.5979 50.1041 17.2259C50.038 17.5711 49.8454 18.1789 49.7793 18.2608C49.7578 18.2917 49.719 18.3689 49.6967 18.4414C49.5868 18.7759 48.9861 19.4294 48.5126 19.7282C48.149 19.9545 47.5813 20.1762 47.1466 20.248C46.7169 20.3253 45.4724 20.2742 45.1527 20.1661C44.8387 20.0627 44.3149 19.8102 44.1554 19.692C43.781 19.4038 43.4397 19.0278 43.263 18.7249C43.1803 18.5798 43.1753 18.7551 43.1695 21.1594V23.7437H41.9574L41.9689 18.1735ZM46.9979 19.1822C47.9507 18.8995 48.5621 18.287 48.8488 17.334C48.9695 16.9324 48.953 15.7638 48.8208 15.3777C48.7109 15.0586 48.4464 14.5644 48.325 14.4509C48.2869 14.4153 48.1928 14.3118 48.1159 14.2292C47.9449 14.0392 47.4333 13.7255 47.2127 13.6738C47.1289 13.655 47.0488 13.6237 46.9756 13.5811C46.926 13.5449 46.6013 13.5241 46.0947 13.5241H45.2899L44.8222 13.7403C44.3149 13.972 44.1223 14.1164 43.8248 14.477C43.5108 14.8531 43.3406 15.2286 43.2464 15.7329C43.1034 16.4999 43.2026 17.283 43.5223 17.88C43.9132 18.6053 44.6454 19.1104 45.5378 19.2648C45.8849 19.3266 46.6674 19.285 46.9979 19.1822ZM5.7024 17.9982C5.68587 17.9828 5.6909 17.8854 5.71892 17.7819C5.80155 17.473 5.93376 16.9532 6.0437 16.5106C6.09903 16.2836 6.18166 15.9492 6.23052 15.7638C6.27507 15.5785 6.34117 15.3266 6.37422 15.1977C6.40892 15.0475 6.44749 14.8981 6.48991 14.7497L6.55601 14.5281H6.84774C7.013 14.5281 7.14521 14.5435 7.14521 14.5697C7.08933 14.8323 7.02511 15.0932 6.95264 15.3521C6.90881 15.5375 6.82043 15.8827 6.76008 16.1245C6.69972 16.3662 6.61637 16.7007 6.57254 16.8706C6.52871 17.0405 6.45757 17.3293 6.41302 17.5147C6.28584 18.0291 6.28584 18.0291 5.99412 18.0291C5.85041 18.0291 5.71892 18.019 5.7024 17.9982ZM4.64472 16.7423L4.27539 16.3763L4.61741 16.021L4.95872 15.6611H5.33307C5.54288 15.6611 5.71389 15.6765 5.71389 15.702C5.71389 15.7222 5.60827 15.8464 5.48181 15.9747C5.04709 16.4072 5.05212 16.3454 5.40492 16.6852C5.57593 16.8552 5.71389 17.015 5.71389 17.0459C5.71389 17.0822 5.57593 17.1023 5.36612 17.1023H5.01404L4.64472 16.7423ZM7.0906 17.0459C7.0906 17.015 7.22784 16.8552 7.39885 16.6852C7.75093 16.3454 7.75668 16.4025 7.327 15.9747C7.19479 15.841 7.08988 15.7228 7.08988 15.702C7.08988 15.6765 7.26089 15.6611 7.4707 15.6611H7.84434L8.18636 16.021C8.51689 16.3662 8.52264 16.3817 8.42851 16.4744C8.3739 16.5261 8.20864 16.6906 8.06565 16.835L7.79548 17.1023H7.4434C7.22784 17.1023 7.0906 17.0822 7.0906 17.0459ZM24.6896 20.2635C24.3269 20.1863 23.9755 20.0689 23.6427 19.9136C23.2238 19.7181 23.2353 19.7228 22.756 19.2803C22.4255 18.9767 22.3041 18.8169 22.1115 18.4307C21.7422 17.7054 21.6596 17.3293 21.6653 16.3824C21.6653 15.4287 21.7479 15.0378 22.1058 14.338C22.2926 13.9774 22.4363 13.7873 22.723 13.514C23.1742 13.0922 23.2684 13.0251 23.698 12.829C24.7938 12.33 26.353 12.3656 27.3446 12.9116C27.8454 13.1849 28.214 13.5395 28.5122 14.0237L28.6825 14.2964V12.5717H29.8393L29.8286 16.3971L29.812 20.2171L29.2501 20.2326L28.6825 20.248L28.6775 19.3575C28.6717 18.518 28.6717 18.4777 28.5891 18.647C28.3024 19.2594 27.5099 19.8773 26.6447 20.1715C26.4026 20.2534 24.9483 20.3206 24.6896 20.2635ZM26.6447 19.1721C27.1571 19.0076 27.4157 18.8578 27.7405 18.5489C28.1321 18.1728 28.1321 18.1728 28.3412 17.7618C28.4461 17.5503 28.5503 17.2259 28.6056 16.9122C28.6882 16.4797 28.6882 16.3508 28.6272 15.9955C28.4461 14.9196 27.9338 14.1836 27.1017 13.8075C26.8926 13.7094 26.6778 13.612 26.6174 13.5858C26.4464 13.5039 25.3887 13.4784 25.0417 13.5455C24.5459 13.6429 24.0889 13.8746 23.7419 14.2091C23.2626 14.6624 23.1908 14.7705 22.9982 15.3421C22.8164 15.8619 22.8221 16.9223 23.0039 17.4629C23.3395 18.4361 24.0997 19.0748 25.1574 19.2648C25.5317 19.332 26.2977 19.285 26.6447 19.1721ZM83.5999 20.2635C82.8067 20.1298 81.9092 19.7074 81.4357 19.2393C81.177 18.9868 80.7797 18.4415 80.6532 18.158C80.3996 17.5919 80.3284 17.2057 80.3284 16.33C80.3284 15.5939 80.345 15.424 80.4549 15.0687C80.8903 13.6584 81.8984 12.7678 83.3966 12.4636C84.6468 12.2165 85.9962 12.4327 86.944 13.0405C87.258 13.2413 87.7703 13.7255 87.8134 13.8639C87.8364 13.9156 87.8694 13.9619 87.8968 13.9619C87.9183 13.9619 87.9521 14.0029 87.9736 14.0546C87.9902 14.1016 88.029 14.1782 88.0563 14.2192C88.1281 14.3226 88.2488 14.5952 88.3652 14.9143C88.4694 15.203 88.5355 16.1909 88.4802 16.557L88.4421 16.7934H82.4984V16.9277C82.4984 17.1285 82.6529 17.5865 82.8124 17.8491C83.0711 18.287 83.7048 18.5952 84.3493 18.5952C85.1649 18.5952 85.8367 18.1789 86.0235 17.5556L86.0846 17.3602H87.1969C87.9025 17.3602 88.3372 17.3803 88.3703 17.4112C88.4364 17.473 88.343 17.8854 88.2 18.1681C88.1646 18.2304 88.1369 18.2962 88.1173 18.3642C88.1173 18.4415 87.7092 18.966 87.4671 19.2037C87.0431 19.6147 86.4755 19.9344 85.7979 20.1453C85.5112 20.2326 85.2806 20.2588 84.5915 20.2688C84.1237 20.2789 83.6775 20.2742 83.5999 20.2635ZM86.2276 15.424C86.1672 14.8578 85.8252 14.4408 85.203 14.1836C84.7517 13.9928 84.0684 14.0029 83.6279 14.1936C83.0711 14.4408 82.7628 14.7806 82.581 15.3313C82.4273 15.8055 82.2505 15.7638 84.3774 15.7638H86.2607L86.2276 15.424ZM53.1119 20.1822C53.0954 20.146 53.0127 19.8471 52.9193 19.5227C52.8309 19.1983 52.6764 18.6631 52.583 18.3387C52.4087 17.739 52.2379 17.1383 52.0707 16.5368C51.9733 16.1807 51.8725 15.8254 51.7682 15.471C51.6779 15.1804 51.5917 14.8887 51.5095 14.5959C51.1948 13.4838 50.975 12.696 50.9527 12.5879L50.9254 12.4697H53.178L53.2441 12.794C53.2771 12.9687 53.3375 13.2628 53.382 13.4475C53.525 14.0553 53.635 14.5496 53.7176 14.9666C53.7679 15.193 53.839 15.5173 53.8778 15.6873C53.9217 15.8572 53.9928 16.1815 54.0481 16.4079C54.153 16.8867 54.2522 17.3145 54.3571 17.7417C54.4397 18.0868 54.4117 18.1177 54.6265 17.4126C54.8967 16.5214 55.0842 15.919 55.3429 15.0694C55.6404 14.1023 55.9048 13.2319 56.0313 12.8196C56.0601 12.7199 56.0951 12.6219 56.1362 12.5261C56.1635 12.4905 56.5544 12.4697 57.3261 12.4697H58.4772L58.5375 12.6913C58.5763 12.8095 58.6863 13.1856 58.7962 13.5247C59.0829 14.4361 59.1102 14.5241 59.4192 15.5328C59.6944 16.4186 59.7605 16.6295 59.9422 17.2064L60.1018 17.7262C60.1463 17.8699 60.1952 17.9989 60.2067 18.0096C60.2174 18.0251 60.2728 17.8397 60.3166 17.608C60.3669 17.3709 60.4438 17.0311 60.4876 16.8458C60.5264 16.6604 60.6026 16.3259 60.6586 16.0989C60.7075 15.8726 60.7851 15.5382 60.8289 15.3528C60.9776 14.6886 61.1379 13.9828 61.2097 13.6537C61.3304 13.0721 61.4569 12.5623 61.49 12.516C61.5065 12.4905 61.98 12.4697 62.5419 12.4697H63.5665L63.5277 12.6859C63.5062 12.8095 63.4559 13.0257 63.4128 13.1648C63.2886 13.5667 63.1691 13.9699 63.0542 14.3743C63.0269 14.4723 62.9551 14.7195 62.8947 14.9149C62.8343 15.1164 62.6856 15.6463 62.5534 16.0989C62.4262 16.5523 62.2502 17.1802 62.1568 17.4891C62.0684 17.8034 61.9089 18.3595 61.804 18.7249C61.6991 19.0956 61.5726 19.5227 61.5288 19.6772C61.4849 19.8316 61.4354 20.0224 61.4181 20.105L61.3908 20.244H58.9341L58.8738 20.0277C58.8458 19.9042 58.7804 19.6772 58.7301 19.5227C58.6798 19.3682 58.5928 19.0902 58.5375 18.9048C58.4822 18.7195 58.3938 18.4468 58.3507 18.3031C58.1316 17.6205 57.9148 16.9373 57.7004 16.2534C57.6401 16.0586 57.5567 15.8008 57.5186 15.6873C57.4806 15.5738 57.4195 15.3736 57.3749 15.2393C57.3368 15.1003 57.2873 14.9922 57.265 14.9922C57.2319 14.9922 57.1443 15.25 56.9402 15.919C56.8849 16.1043 56.7642 16.4851 56.665 16.7685C56.4775 17.3192 56.4387 17.4381 56.1743 18.3132C56.0751 18.6268 55.9759 18.9203 55.9486 18.9666C55.9156 19.0183 55.8933 19.0855 55.8933 19.1211C55.8933 19.1567 55.8107 19.4253 55.7173 19.7134L55.5355 20.244H54.3348C53.4259 20.244 53.1284 20.2286 53.1119 20.1822ZM64.5797 20.2077C64.5581 20.1923 64.5416 18.4415 64.5416 16.3206V12.4697H66.7446V13.6899L67.2073 13.2675C67.8576 12.6758 68.5955 12.3669 69.3665 12.3669H69.664L69.6532 13.4629L69.6367 14.555L68.9972 14.5858C68.6509 14.606 68.2815 14.6369 68.1824 14.6577C67.665 14.7605 67.2023 15.0801 66.9925 15.4663C66.7726 15.878 66.7446 16.2124 66.7446 18.2668V20.244H65.6812C65.092 20.244 64.5955 20.2286 64.5797 20.2077ZM70.7382 20.1305C70.7217 20.0633 70.7166 18.3239 70.7217 16.2534L70.7382 12.4952H72.9419V20.2185L71.8569 20.2333L70.7662 20.244L70.7382 20.1305ZM77.3207 20.1614C76.4448 20.0016 75.8391 19.6308 75.5581 19.0801C75.2549 18.4777 75.2276 18.2259 75.2276 16.1453V14.2198H74.0707L74.0822 13.3602L74.0988 12.4952L74.6664 12.4797L75.2276 12.4643V10.565L76.3456 10.5751L77.4586 10.5905L77.4752 11.5274L77.4859 12.4697H79.2485V14.2198H77.4859V16.0633C77.4859 18.0405 77.4917 18.056 77.7777 18.2568C77.9099 18.3441 78.0363 18.3642 78.604 18.3904L79.2765 18.4159V20.2178L78.5048 20.2286C78.0205 20.2333 77.5793 20.2077 77.3207 20.1614ZM71.3166 11.4092C70.7605 11.2494 70.4357 10.7349 70.5234 10.158C70.5787 9.76651 70.8596 9.45287 71.2836 9.30311C71.5868 9.19565 72.2967 9.22117 72.5561 9.34475C72.8593 9.49384 73.0792 9.75643 73.1676 10.0701C73.2444 10.3387 73.2394 10.3951 73.1568 10.6577C72.9527 11.3212 72.148 11.6517 71.3166 11.4092Z" fill="#2A5769"/>
<path id="Vector_2" d="M5.9515 10.8887C4.7821 10.9868 3.66935 11.404 2.75158 12.0884C1.83382 12.7729 1.15154 13.6943 0.789569 14.7383C0.574009 15.3548 0.5 15.7967 0.5 16.4891C0.5 17.1809 0.574009 17.6228 0.789569 18.2393C1.93563 21.5086 5.89905 23.0512 9.1928 21.5119L9.49962 21.3669L9.81002 21.5119C11.1202 22.1263 12.6253 22.272 14.0424 21.9218C15.4595 21.5715 16.6908 20.7494 17.5048 19.61C17.9452 18.9968 18.2844 18.2023 18.4288 17.4481C18.4813 17.158 18.4992 16.927 18.4992 16.4891C18.4992 15.7967 18.4252 15.3548 18.2097 14.7383C17.0643 11.469 13.1002 9.92632 9.81002 11.4656L9.49962 11.6107L9.1928 11.4656C8.49917 11.1432 7.74659 10.9464 6.97469 10.8854C6.50549 10.8491 6.40993 10.8491 5.9515 10.8887ZM7.46114 12.0848C7.80675 12.1479 8.47355 12.3917 8.87881 12.606C9.43279 12.8961 10.0601 13.4401 10.4445 13.9606C10.6529 14.244 10.9317 14.7779 11.0904 15.203C11.3161 15.7967 11.3161 17.1809 11.0904 17.7739C10.8145 18.4992 10.466 19.0633 9.99684 19.5281C9.43998 20.0815 8.9212 20.4079 8.14518 20.6913C7.65155 20.8726 7.35552 20.9317 6.77351 20.9586C6.06144 20.9915 5.41907 20.9122 4.91538 20.7242C4.81901 20.6849 4.71986 20.6519 4.61863 20.6254C4.54534 20.6093 3.91015 20.2789 3.69531 20.1439C3.4661 19.9988 2.90205 19.4817 2.6829 19.2144C2.61079 19.1301 2.54363 19.0423 2.48171 18.9512C2.48171 18.9411 2.40052 18.8027 2.30208 18.6442C2.12891 18.3642 2.01251 18.1372 2.04125 18.1372C2.04844 18.1372 2.00964 18.0318 1.95287 17.9028C1.78042 17.5173 1.72725 17.1775 1.72725 16.4891C1.72725 15.8001 1.78042 15.4602 1.95287 15.0747C2.00964 14.9458 2.04844 14.8404 2.04125 14.8404C2.01251 14.8404 2.12891 14.6134 2.30208 14.3333C2.40052 14.1748 2.48171 14.0365 2.48171 14.0264C2.48171 14.0163 2.57368 13.8981 2.6829 13.7625C2.90205 13.4958 3.4661 12.978 3.69531 12.8336C3.90656 12.6987 4.54534 12.3682 4.61863 12.3521C4.7314 12.3218 4.84223 12.2854 4.95059 12.2433C5.27105 12.1244 5.47943 12.0788 5.85019 12.0391C6.23101 11.9995 7.1263 12.0257 7.46114 12.0848ZM32.28 0.744324L32.2728 0.77253L32.2598 0.824243L32.2491 0.868569L32.2584 0.86924H32.267L32.2713 0.853123L32.2828 0.806109L32.2943 0.761786L32.2986 0.745666C32.2986 0.744323 32.2965 0.743652 32.29 0.743652L32.28 0.744324ZM32.2103 0.797381L32.1981 0.810139L32.2016 0.813498L32.2131 0.825588L32.2218 0.834319H32.2455L32.234 0.8229C32.2298 0.818888 32.226 0.814625 32.2225 0.810139L32.2333 0.798052C32.2372 0.794281 32.2408 0.790239 32.244 0.785962L32.2333 0.785291H32.2218L32.2103 0.797381ZM32.3015 0.785962L32.3065 0.791335C32.3166 0.800737 32.3238 0.808796 32.3231 0.810139C32.3231 0.811482 32.318 0.816856 32.3116 0.8229L32.3015 0.834319H32.313L32.3252 0.833645L32.3367 0.8229L32.3475 0.810139C32.3442 0.805472 32.3404 0.80119 32.336 0.797381L32.3238 0.785291H32.313L32.3015 0.785962Z" fill="#2A5769"/>
</g>
</svg>
