<svg width="18" height="15" viewBox="0 0 18 15" fill="none" xmlns="http://www.w3.org/2000/svg">
<path id="Vector" d="M15.2303 1.78094C14.0902 1.2495 12.8559 0.863772 11.5702 0.640909C11.5589 0.640548 11.5477 0.642664 11.5373 0.647107C11.527 0.651549 11.5177 0.658212 11.5102 0.666624C11.3559 0.949489 11.1759 1.31807 11.0559 1.60093C9.69212 1.39521 8.30523 1.39521 6.94147 1.60093C6.82147 1.3095 6.64147 0.949489 6.4786 0.666624C6.47003 0.64948 6.44432 0.640909 6.4186 0.640909C5.13285 0.863772 3.9071 1.2495 2.7585 1.78094C2.74993 1.78094 2.74136 1.78951 2.73279 1.79808C0.401295 5.28675 -0.24158 8.68113 0.0755713 12.0412C0.0755713 12.0584 0.0841429 12.0755 0.101286 12.0841C1.64419 13.2155 3.12708 13.9013 4.59284 14.3556C4.61855 14.3641 4.64427 14.3556 4.65284 14.3384C4.99571 13.867 5.30429 13.3698 5.57001 12.847C5.58715 12.8127 5.57001 12.7784 5.53572 12.7698C5.04714 12.5812 4.58427 12.3584 4.12997 12.1012C4.09568 12.0841 4.09568 12.0326 4.1214 12.0069C4.21568 11.9384 4.30997 11.8612 4.40426 11.7926C4.4214 11.7755 4.44712 11.7755 4.46426 11.7841C7.41292 13.1298 10.593 13.1298 13.5074 11.7841C13.5245 11.7755 13.5502 11.7755 13.5674 11.7926C13.6617 11.8698 13.7559 11.9384 13.8502 12.0155C13.8845 12.0412 13.8845 12.0927 13.8417 12.1098C13.3959 12.3755 12.9245 12.5898 12.4359 12.7784C12.4016 12.787 12.3931 12.8298 12.4016 12.8555C12.6759 13.3784 12.9845 13.8756 13.3188 14.347C13.3445 14.3556 13.3702 14.3641 13.3959 14.3556C14.8703 13.9013 16.3532 13.2155 17.8961 12.0841C17.9132 12.0755 17.9218 12.0584 17.9218 12.0412C18.2989 8.15826 17.296 4.78959 15.2646 1.79808C15.256 1.78951 15.2474 1.78094 15.2303 1.78094ZM6.01573 9.99259C5.13285 9.99259 4.39569 9.17829 4.39569 8.1754C4.39569 7.17252 5.11571 6.35821 6.01573 6.35821C6.92433 6.35821 7.64435 7.18109 7.63578 8.1754C7.63578 9.17829 6.91576 9.99259 6.01573 9.99259ZM11.9902 9.99259C11.1073 9.99259 10.3701 9.17829 10.3701 8.1754C10.3701 7.17252 11.0902 6.35821 11.9902 6.35821C12.8988 6.35821 13.6188 7.18109 13.6102 8.1754C13.6102 9.17829 12.8988 9.99259 11.9902 9.99259Z" fill="#EFEDEF"/>
</svg>
