<svg width="103" height="14" viewBox="0 0 103 14" fill="none" xmlns="http://www.w3.org/2000/svg">
<g id="Logo">
<g id="Keen">
<path d="M6.91461 13.7808L3.74225 9.23133L2.08958 10.7793V13.7808H0L0 0.000244141H2.08958V8.74051L6.64866 3.92676H8.9282L5.07198 8.06092L9.13716 13.7808H6.91461Z" fill="#12233D"/>
<path d="M13.9149 13.9696C13.1423 13.9696 12.4395 13.8374 11.8063 13.5731C11.1731 13.2963 10.6285 12.925 10.1726 12.4594C9.72936 11.9937 9.3811 11.4526 9.12781 10.8359C8.8872 10.2192 8.76689 9.56483 8.76689 8.87265C8.76689 8.18048 8.8872 7.52606 9.12781 6.9094C9.3811 6.28015 9.72936 5.7327 10.1726 5.26706C10.6285 4.78883 11.1731 4.41757 11.8063 4.15329C12.4395 3.87642 13.1487 3.73798 13.9338 3.73798C14.7064 3.73798 15.4029 3.87642 16.0234 4.15329C16.6566 4.43016 17.1949 4.80141 17.6381 5.26706C18.0813 5.72012 18.4169 6.25498 18.6449 6.87164C18.8855 7.47572 19.0058 8.11126 19.0058 8.77827C19.0058 8.92929 18.9995 9.07401 18.9868 9.21245C18.9742 9.3383 18.9615 9.44527 18.9488 9.53336H10.9894C11.0274 9.97384 11.1287 10.3703 11.2934 10.7226C11.4707 11.075 11.6923 11.3834 11.9582 11.6476C12.2369 11.8993 12.5471 12.0944 12.8891 12.2328C13.2437 12.3713 13.6109 12.4405 13.9908 12.4405C14.2694 12.4405 14.5417 12.409 14.8077 12.3461C15.0863 12.2706 15.3396 12.1699 15.5675 12.0441C15.7955 11.9056 15.9981 11.742 16.1754 11.5533C16.3527 11.3645 16.492 11.1568 16.5933 10.9303L18.379 11.44C18.037 12.1825 17.4671 12.7929 16.6693 13.2711C15.8841 13.7367 14.966 13.9696 13.9149 13.9696ZM16.9352 8.09868C16.8973 7.68337 16.7896 7.29953 16.6123 6.94715C16.4477 6.59477 16.2324 6.29903 15.9664 6.05991C15.7005 5.80821 15.3902 5.61314 15.0356 5.47471C14.681 5.33627 14.3074 5.26706 13.9149 5.26706C13.5223 5.26706 13.1487 5.33627 12.7941 5.47471C12.4521 5.61314 12.1482 5.80821 11.8823 6.05991C11.6163 6.29903 11.401 6.59477 11.2364 6.94715C11.0718 7.29953 10.9704 7.68337 10.9325 8.09868H16.9352Z" fill="#12233D"/>
<path d="M24.7375 13.9696C23.965 13.9696 23.2621 13.8374 22.6289 13.5731C21.9957 13.2963 21.4511 12.925 20.9952 12.4594C20.552 11.9937 20.2037 11.4526 19.9504 10.8359C19.7098 10.2192 19.5895 9.56483 19.5895 8.87265C19.5895 8.18048 19.7098 7.52606 19.9504 6.9094C20.2037 6.28015 20.552 5.7327 20.9952 5.26706C21.4511 4.78883 21.9957 4.41757 22.6289 4.15329C23.2621 3.87642 23.9713 3.73798 24.7565 3.73798C25.529 3.73798 26.2255 3.87642 26.8461 4.15329C27.4793 4.43016 28.0175 4.80141 28.4607 5.26706C28.904 5.72012 29.2396 6.25498 29.4675 6.87164C29.7081 7.47572 29.8285 8.11126 29.8285 8.77827C29.8285 8.92929 29.8221 9.07401 29.8095 9.21245C29.7968 9.3383 29.7841 9.44527 29.7715 9.53336H21.8121C21.8501 9.97384 21.9514 10.3703 22.116 10.7226C22.2933 11.075 22.5149 11.3834 22.7809 11.6476C23.0595 11.8993 23.3698 12.0944 23.7117 12.2328C24.0663 12.3713 24.4335 12.4405 24.8135 12.4405C25.0921 12.4405 25.3644 12.409 25.6303 12.3461C25.9089 12.2706 26.1622 12.1699 26.3901 12.0441C26.6181 11.9056 26.8207 11.742 26.998 11.5533C27.1753 11.3645 27.3146 11.1568 27.4159 10.9303L29.2016 11.44C28.8597 12.1825 28.2898 12.7929 27.4919 13.2711C26.7067 13.7367 25.7886 13.9696 24.7375 13.9696ZM27.7579 8.09868C27.7199 7.68337 27.6122 7.29953 27.4349 6.94715C27.2703 6.59477 27.055 6.29903 26.7891 6.05991C26.5231 5.80821 26.2129 5.61314 25.8583 5.47471C25.5037 5.33627 25.1301 5.26706 24.7375 5.26706C24.3449 5.26706 23.9713 5.33627 23.6167 5.47471C23.2748 5.61314 22.9708 5.80821 22.7049 6.05991C22.4389 6.29903 22.2237 6.59477 22.059 6.94715C21.8944 7.29953 21.7931 7.68337 21.7551 8.09868H27.7579Z" fill="#12233D"/>
<path d="M39.9672 13.7808H37.8776V8.2497C37.8776 7.31841 37.7257 6.64511 37.4217 6.22981C37.1305 5.80192 36.6935 5.58797 36.111 5.58797C35.8071 5.58797 35.5031 5.64461 35.1992 5.75787C34.8952 5.87114 34.6103 6.03474 34.3444 6.24869C34.0784 6.45005 33.8378 6.69545 33.6225 6.98491C33.4199 7.26178 33.2616 7.57011 33.1476 7.9099V13.7808H31.058V3.90788H32.9576V5.89001C33.3376 5.22301 33.8884 4.70073 34.6103 4.32318C35.3322 3.93305 36.13 3.73798 37.0038 3.73798C37.599 3.73798 38.0866 3.84495 38.4665 4.0589C38.8464 4.27284 39.1441 4.56859 39.3593 4.94614C39.5873 5.3111 39.7456 5.73899 39.8342 6.22981C39.9229 6.70804 39.9672 7.21773 39.9672 7.75888V13.7808Z" fill="#12233D"/>
</g>
<g id="ethics">
<path d="M57.5332 13.9693C56.7607 13.9693 56.0578 13.8372 55.4246 13.5729C54.7914 13.296 54.2469 12.9248 53.791 12.4591C53.3477 11.9935 52.9995 11.4523 52.7462 10.8357C52.5056 10.219 52.3853 9.56458 52.3853 8.87241C52.3853 8.18024 52.5056 7.52582 52.7462 6.90915C52.9995 6.2799 53.3477 5.73246 53.791 5.26681C54.2469 4.78858 54.7914 4.41733 55.4246 4.15304C56.0578 3.87617 56.767 3.73774 57.5522 3.73774C58.3247 3.73774 59.0213 3.87617 59.6418 4.15304C60.275 4.42991 60.8132 4.80117 61.2565 5.26681C61.6997 5.71987 62.0353 6.25473 62.2633 6.8714C62.5039 7.47548 62.6242 8.11102 62.6242 8.77802C62.6242 8.92904 62.6179 9.07377 62.6052 9.2122C62.5925 9.33805 62.5799 9.44503 62.5672 9.53312H54.6078C54.6458 9.9736 54.7471 10.37 54.9117 10.7224C55.089 11.0748 55.3107 11.3831 55.5766 11.6474C55.8552 11.8991 56.1655 12.0942 56.5074 12.2326C56.862 12.371 57.2293 12.4403 57.6092 12.4403C57.8878 12.4403 58.1601 12.4088 58.426 12.3459C58.7047 12.2704 58.9579 12.1697 59.1859 12.0438C59.4138 11.9054 59.6165 11.7418 59.7938 11.553C59.9711 11.3642 60.1104 11.1566 60.2117 10.9301L61.9973 11.4397C61.6554 12.1823 61.0855 12.7926 60.2877 13.2709C59.5025 13.7365 58.5843 13.9693 57.5332 13.9693ZM60.5536 8.09843C60.5156 7.68313 60.408 7.29929 60.2307 6.94691C60.066 6.59453 59.8508 6.29878 59.5848 6.05967C59.3189 5.80797 59.0086 5.6129 58.654 5.47447C58.2994 5.33603 57.9258 5.26681 57.5332 5.26681C57.1406 5.26681 56.767 5.33603 56.4124 5.47447C56.0705 5.6129 55.7666 5.80797 55.5006 6.05967C55.2347 6.29878 55.0194 6.59453 54.8548 6.94691C54.6901 7.29929 54.5888 7.68313 54.5508 8.09843H60.5536Z" fill="#12233D"/>
<path d="M69.3074 13.2709C69.0415 13.3967 68.6742 13.5414 68.2057 13.705C67.7371 13.8561 67.2369 13.9316 66.705 13.9316C66.3757 13.9316 66.0654 13.8875 65.7741 13.7994C65.4829 13.7113 65.2233 13.5792 64.9953 13.403C64.78 13.2268 64.6091 13.0003 64.4824 12.7234C64.3558 12.434 64.2924 12.0879 64.2924 11.6852V5.51222H62.9817V3.90764H64.2924V0.660711H66.382V3.90764H68.5476V5.51222H66.382V11.0244C66.4074 11.3768 66.515 11.6348 66.705 11.7984C66.9076 11.9494 67.1545 12.0249 67.4458 12.0249C67.7371 12.0249 68.0157 11.9746 68.2816 11.8739C68.5476 11.7732 68.7439 11.6914 68.8705 11.6285L69.3074 13.2709Z" fill="#12233D"/>
<path d="M79.189 13.7806H77.0994V8.24945C77.0994 7.34334 76.9348 6.67633 76.6055 6.24844C76.2889 5.80797 75.8267 5.58773 75.2188 5.58773C74.9275 5.58773 74.6363 5.64436 74.345 5.75763C74.0537 5.87089 73.7751 6.0345 73.5092 6.24844C73.2559 6.4498 73.0279 6.69521 72.8253 6.98466C72.6227 7.26153 72.4707 7.56986 72.3694 7.90966V13.7806H70.2798V0L72.3694 0V5.88977C72.7493 5.21018 73.2622 4.68161 73.9081 4.30406C74.5666 3.92651 75.2821 3.73774 76.0546 3.73774C76.6752 3.73774 77.1818 3.851 77.5743 4.07753C77.9796 4.29148 78.3025 4.58093 78.5431 4.9459C78.7838 5.31086 78.9484 5.73875 79.037 6.22956C79.1384 6.70779 79.189 7.21749 79.189 7.75864V13.7806Z" fill="#12233D"/>
<path d="M81.1395 13.7806V3.90764H83.2291V13.7806H81.1395ZM81.1395 2.28417V0L83.2291 0V2.28417H81.1395Z" fill="#12233D"/>
<path d="M84.6194 8.83465C84.6194 8.14248 84.7397 7.48806 84.9803 6.8714C85.2209 6.25473 85.5629 5.71358 86.0061 5.24794C86.462 4.78229 87.0066 4.41733 87.6398 4.15304C88.273 3.87617 88.9822 3.73774 89.7674 3.73774C90.7932 3.73774 91.6733 3.96427 92.4078 4.41733C93.155 4.8578 93.7122 5.4493 94.0795 6.19181L92.0469 6.83364C91.8063 6.41834 91.4834 6.09742 91.0781 5.87089C90.6729 5.63178 90.2233 5.51222 89.7294 5.51222C89.3115 5.51222 88.9189 5.59402 88.5516 5.75763C88.197 5.92123 87.8867 6.15405 87.6208 6.45609C87.3549 6.74555 87.1459 7.09164 86.9939 7.49436C86.842 7.89707 86.766 8.34384 86.766 8.83465C86.766 9.31288 86.842 9.75965 86.9939 10.175C87.1586 10.5777 87.3738 10.9301 87.6398 11.2321C87.9184 11.5341 88.235 11.7732 88.5896 11.9494C88.9569 12.113 89.3431 12.1948 89.7484 12.1948C90.0017 12.1948 90.2549 12.1634 90.5082 12.1005C90.7615 12.0249 90.9895 11.9243 91.1921 11.7984C91.4074 11.6726 91.591 11.5278 91.743 11.3642C91.9076 11.2006 92.0279 11.0244 92.1039 10.8357L94.1555 11.4397C93.8262 12.1823 93.2753 12.7926 92.5028 13.2709C91.7303 13.7365 90.8185 13.9693 89.7674 13.9693C88.9949 13.9693 88.292 13.8309 87.6588 13.554C87.0256 13.2772 86.481 12.9059 86.0251 12.4403C85.5819 11.962 85.2336 11.4146 84.9803 10.7979C84.7397 10.1812 84.6194 9.52683 84.6194 8.83465Z" fill="#12233D"/>
<path d="M99.0108 13.9693C98.213 13.9693 97.4151 13.8435 96.6173 13.5918C95.8321 13.3275 95.1546 12.9562 94.5847 12.478L95.4205 11.1566C96.0157 11.5845 96.6046 11.9117 97.1872 12.1382C97.7697 12.3522 98.3649 12.4591 98.9728 12.4591C99.5933 12.4591 100.081 12.3396 100.436 12.1005C100.803 11.8613 100.986 11.5215 100.986 11.0811C100.986 10.6658 100.784 10.3637 100.379 10.175C99.9733 9.98618 99.3401 9.77853 98.4789 9.552C97.8584 9.38839 97.3265 9.23108 96.8832 9.08006C96.44 8.92904 96.079 8.75285 95.8004 8.55149C95.5218 8.35013 95.3192 8.11731 95.1926 7.85303C95.0659 7.58874 95.0026 7.26782 95.0026 6.89028C95.0026 6.38688 95.0976 5.94011 95.2875 5.54998C95.4902 5.15984 95.7624 4.83263 96.1044 4.56835C96.459 4.29148 96.8706 4.08383 97.3391 3.94539C97.8077 3.80696 98.3143 3.73774 98.8588 3.73774C99.606 3.73774 100.303 3.851 100.948 4.07753C101.594 4.30406 102.17 4.63127 102.677 5.05916L101.784 6.30507C100.86 5.57515 99.8783 5.21018 98.8398 5.21018C98.3079 5.21018 97.8584 5.32345 97.4911 5.54998C97.1365 5.76392 96.9592 6.11001 96.9592 6.58824C96.9592 6.7896 96.9972 6.95949 97.0732 7.09793C97.1492 7.23636 97.2695 7.35592 97.4341 7.4566C97.6114 7.55728 97.833 7.65167 98.099 7.73976C98.3776 7.81527 98.7195 7.90337 99.1248 8.00405C99.796 8.16765 100.372 8.33126 100.853 8.49486C101.347 8.65847 101.753 8.85353 102.069 9.08006C102.386 9.29401 102.62 9.552 102.772 9.85404C102.924 10.1435 103 10.4959 103 10.9112C103 11.8551 102.639 12.6039 101.917 13.1576C101.208 13.6987 100.239 13.9693 99.0108 13.9693Z" fill="#12233D"/>
</g>
<ellipse id="Ellipse 10" cx="46.2245" cy="11.4831" rx="2.53282" ry="2.517" fill="#D62C2C"/>
</g>
</svg>
