<svg width="56" height="9" viewBox="0 0 56 9" fill="none" xmlns="http://www.w3.org/2000/svg">
<g clip-path="url(#clip0_122_25004)">
<path d="M3.75849 8.0491L2.03412 5.65891L1.13581 6.47216V8.0491H0V0.809082H1.13581V5.40104L3.61393 2.87199H4.85299L2.7569 5.044L4.96657 8.0491H3.75849Z" fill="white"/>
<path d="M7.56359 8.14842C7.1437 8.14842 6.76164 8.07898 6.41746 7.94013C6.07329 7.79469 5.77729 7.59963 5.52947 7.35499C5.28855 7.11034 5.09924 6.82605 4.96157 6.50206C4.83078 6.17807 4.76538 5.83425 4.76538 5.47059C4.76538 5.10695 4.83078 4.76313 4.96157 4.43914C5.09924 4.10855 5.28855 3.82092 5.52947 3.5763C5.77729 3.32504 6.07329 3.12999 6.41746 2.99114C6.76164 2.84568 7.14715 2.77295 7.57391 2.77295C7.99383 2.77295 8.37244 2.84568 8.70971 2.99114C9.05391 3.1366 9.34646 3.33165 9.58738 3.5763C9.82833 3.81432 10.0107 4.09533 10.1346 4.41932C10.2654 4.73668 10.3308 5.07059 10.3308 5.421C10.3308 5.50035 10.3274 5.57639 10.3205 5.64914C10.3136 5.71523 10.3067 5.77144 10.2998 5.81772H5.97345C5.99412 6.04914 6.0492 6.25742 6.13868 6.44254C6.23504 6.62768 6.35551 6.78967 6.50008 6.92854C6.65151 7.06076 6.82016 7.16324 7.006 7.23596C7.19877 7.30871 7.39838 7.34508 7.60489 7.34508C7.75633 7.34508 7.90434 7.32854 8.0489 7.29549C8.20034 7.25582 8.338 7.20292 8.46192 7.13679C8.58582 7.06407 8.69594 6.97812 8.79233 6.87892C8.88871 6.77975 8.96443 6.67067 9.01948 6.55165L9.99008 6.81943C9.80424 7.20954 9.49447 7.53019 9.06079 7.78146C8.634 8.02611 8.13494 8.14842 7.56359 8.14842ZM9.20535 5.06396C9.18471 4.84577 9.12618 4.64411 9.02983 4.45899C8.94034 4.27385 8.82332 4.11846 8.67875 3.99284C8.53419 3.8606 8.36554 3.75811 8.1728 3.68539C7.98006 3.61267 7.777 3.5763 7.56359 3.5763C7.35021 3.5763 7.14714 3.61267 6.95438 3.68539C6.76853 3.75811 6.60333 3.8606 6.45877 3.99284C6.31421 4.11846 6.19718 4.27385 6.1077 4.45899C6.01821 4.64411 5.96313 4.84577 5.94249 5.06396H9.20535Z" fill="white"/>
<path d="M13.4462 8.14842C13.0263 8.14842 12.6442 8.07898 12.3 7.94013C11.9559 7.79469 11.6599 7.59963 11.412 7.35499C11.1711 7.11034 10.9818 6.82605 10.8441 6.50206C10.7133 6.17807 10.6479 5.83425 10.6479 5.47059C10.6479 5.10695 10.7133 4.76313 10.8441 4.43914C10.9818 4.10855 11.1711 3.82092 11.412 3.5763C11.6599 3.32504 11.9559 3.12999 12.3 2.99114C12.6442 2.84568 13.0297 2.77295 13.4565 2.77295C13.8764 2.77295 14.255 2.84568 14.5923 2.99114C14.9365 3.1366 15.229 3.33165 15.47 3.5763C15.7109 3.81432 15.8933 4.09533 16.0172 4.41932C16.148 4.73668 16.2134 5.07059 16.2134 5.421C16.2134 5.50035 16.21 5.57639 16.2031 5.64914C16.1962 5.71523 16.1893 5.77144 16.1824 5.81772H11.856C11.8767 6.04914 11.9317 6.25742 12.0213 6.44254C12.1176 6.62768 12.2381 6.78967 12.3826 6.92854C12.5341 7.06076 12.7027 7.16324 12.8886 7.23596C13.0813 7.30871 13.281 7.34508 13.4875 7.34508C13.6389 7.34508 13.7869 7.32854 13.9314 7.29549C14.0829 7.25582 14.2206 7.20292 14.3445 7.13679C14.4684 7.06407 14.5785 6.97812 14.6749 6.87892C14.7713 6.77975 14.847 6.67067 14.902 6.55165L15.8727 6.81943C15.6868 7.20954 15.377 7.53019 14.9434 7.78146C14.5166 8.02611 14.0175 8.14842 13.4462 8.14842ZM15.0879 5.06396C15.0673 4.84577 15.0088 4.64411 14.9124 4.45899C14.8229 4.27385 14.7059 4.11846 14.5613 3.99284C14.4168 3.8606 14.2481 3.75811 14.0554 3.68539C13.8626 3.61267 13.6596 3.5763 13.4462 3.5763C13.2328 3.5763 13.0297 3.61267 12.8369 3.68539C12.6511 3.75811 12.4859 3.8606 12.3413 3.99284C12.1968 4.11846 12.0798 4.27385 11.9903 4.45899C11.9008 4.64411 11.8457 4.84577 11.8251 5.06396H15.0879Z" fill="white"/>
<path d="M21.7242 8.04924H20.5884V5.14331C20.5884 4.65402 20.5058 4.3003 20.3406 4.0821C20.1823 3.85731 19.9448 3.74489 19.6282 3.74489C19.463 3.74489 19.2977 3.77465 19.1325 3.83415C18.9673 3.89367 18.8125 3.97962 18.6679 4.09201C18.5233 4.19781 18.3925 4.32675 18.2755 4.47882C18.1654 4.62429 18.0793 4.78627 18.0174 4.96479V8.04924H16.8816V2.86221H17.9141V3.90358C18.1207 3.55314 18.4201 3.27876 18.8125 3.0804C19.2048 2.87543 19.6385 2.77295 20.1135 2.77295C20.437 2.77295 20.702 2.82915 20.9085 2.94155C21.115 3.05396 21.2768 3.20933 21.3938 3.40769C21.5177 3.59944 21.6038 3.82423 21.652 4.0821C21.7001 4.33335 21.7242 4.60113 21.7242 4.88544V8.04924Z" fill="white"/>
<path d="M31.2725 8.14865C30.8526 8.14865 30.4705 8.07924 30.1264 7.94039C29.7823 7.79492 29.4863 7.59986 29.2383 7.35522C28.9974 7.1106 28.8081 6.82629 28.6704 6.5023C28.5395 6.17833 28.4744 5.83449 28.4744 5.47085C28.4744 5.10718 28.5395 4.76337 28.6704 4.4394C28.8081 4.10879 28.9974 3.82118 29.2383 3.57654C29.4863 3.32529 29.7823 3.13024 30.1264 2.99138C30.4705 2.84592 30.8561 2.77319 31.2828 2.77319C31.7027 2.77319 32.0812 2.84592 32.4185 2.99138C32.7629 3.13685 33.0554 3.3319 33.2963 3.57654C33.5372 3.81456 33.7197 4.09556 33.8435 4.41955C33.9744 4.73692 34.0396 5.07082 34.0396 5.42126C34.0396 5.50061 34.0363 5.57665 34.0293 5.64937C34.0225 5.71549 34.0157 5.77168 34.0086 5.81798H29.6824C29.703 6.0494 29.7581 6.25765 29.8475 6.4428C29.9439 6.62792 30.0645 6.78993 30.209 6.92877C30.3605 7.06102 30.5291 7.16348 30.7149 7.23623C30.9077 7.30895 31.1073 7.34531 31.3137 7.34531C31.4653 7.34531 31.6133 7.3288 31.7578 7.29572C31.9093 7.25605 32.047 7.20315 32.1709 7.13705C32.2947 7.0643 32.405 6.97836 32.5011 6.87919C32.5975 6.77999 32.6733 6.6709 32.7284 6.55188L33.699 6.81966C33.513 7.20978 33.2034 7.53046 32.7697 7.7817C32.343 8.02634 31.8439 8.14865 31.2725 8.14865ZM32.9142 5.06422C32.8935 4.84603 32.8351 4.64435 32.7387 4.45923C32.6491 4.27408 32.5323 4.11872 32.3876 3.99308C32.2431 3.86086 32.0744 3.75837 31.8816 3.68562C31.6891 3.6129 31.4859 3.57654 31.2725 3.57654C31.059 3.57654 30.8561 3.6129 30.6633 3.68562C30.4776 3.75837 30.3122 3.86086 30.1677 3.99308C30.0232 4.11872 29.9061 4.27408 29.8165 4.45923C29.7272 4.64435 29.672 4.84603 29.6514 5.06422H32.9142Z" fill="white"/>
<path d="M37.6724 7.78161C37.5276 7.84773 37.328 7.92376 37.0735 8.00971C36.8188 8.08906 36.5467 8.12873 36.2577 8.12873C36.0787 8.12873 35.9101 8.1056 35.7518 8.0593C35.5934 8.01302 35.4522 7.94359 35.3284 7.85104C35.2113 7.75847 35.1184 7.63945 35.0497 7.494C34.9807 7.34193 34.9462 7.1601 34.9462 6.9485V3.70538H34.2339V2.86236H34.9462V1.15649H36.0823V2.86236H37.2593V3.70538H36.0823V6.60138C36.0958 6.78652 36.1545 6.92205 36.2577 7.00803C36.3677 7.08735 36.5021 7.12702 36.6605 7.12702C36.8188 7.12702 36.9701 7.10057 37.1148 7.0477C37.2593 6.9948 37.366 6.95182 37.4347 6.91877L37.6724 7.78161Z" fill="white"/>
<path d="M43.0432 8.04934H41.9075V5.14341C41.9075 4.66737 41.8179 4.31693 41.6389 4.09214C41.467 3.86072 41.2158 3.74501 40.8853 3.74501C40.7269 3.74501 40.5686 3.77475 40.4103 3.83427C40.2519 3.89377 40.1004 3.97971 39.9559 4.09214C39.8182 4.19791 39.6944 4.32684 39.5841 4.47891C39.4741 4.62438 39.3916 4.78637 39.3364 4.96489V8.04934H38.2007V0.809326H39.3364V3.90368C39.5428 3.54664 39.8217 3.26895 40.1729 3.07059C40.5308 2.87224 40.9197 2.77306 41.3396 2.77306C41.6769 2.77306 41.9523 2.83257 42.1655 2.95158C42.386 3.06398 42.5615 3.21605 42.6921 3.4078C42.823 3.59954 42.9126 3.82436 42.9607 4.0822C43.0158 4.33347 43.0432 4.60125 43.0432 4.88557V8.04934Z" fill="white"/>
<path d="M44.1035 8.04934V2.86232H45.2393V8.04934H44.1035ZM44.1035 2.00938V0.809326H45.2393V2.00938H44.1035Z" fill="white"/>
<path d="M45.9951 5.451C45.9951 5.08736 46.0606 4.74354 46.1912 4.41955C46.3221 4.09556 46.5079 3.81127 46.7488 3.56663C46.9967 3.32198 47.2927 3.13024 47.6368 2.99138C47.9809 2.84592 48.3666 2.77319 48.7932 2.77319C49.3508 2.77319 49.8293 2.89221 50.2285 3.13024C50.6345 3.36165 50.9376 3.6724 51.1372 4.06251L50.0324 4.39973C49.9015 4.18153 49.7261 4.01293 49.5058 3.8939C49.2856 3.76828 49.0412 3.70547 48.7726 3.70547C48.5455 3.70547 48.3321 3.74846 48.1325 3.83441C47.9396 3.92035 47.771 4.04269 47.6265 4.20136C47.482 4.35343 47.3682 4.53526 47.2857 4.74683C47.2031 4.95843 47.1618 5.19316 47.1618 5.451C47.1618 5.70227 47.2031 5.93697 47.2857 6.15517C47.3753 6.36676 47.4923 6.55188 47.6368 6.71058C47.7884 6.86927 47.9603 6.99489 48.1531 7.08744C48.3527 7.17341 48.5626 7.21638 48.7829 7.21638C48.9206 7.21638 49.0583 7.19986 49.196 7.16679C49.3337 7.12712 49.4575 7.07422 49.5678 7.00812C49.6848 6.942 49.7845 6.86596 49.867 6.77999C49.9567 6.69404 50.0221 6.60147 50.0634 6.5023L51.1785 6.81966C50.9995 7.20978 50.7 7.53046 50.2801 7.7817C49.8603 8.02634 49.3646 8.14865 48.7932 8.14865C48.3734 8.14865 47.9912 8.07593 47.6471 7.93048C47.3031 7.78501 47.007 7.58995 46.7591 7.34531C46.5182 7.09407 46.3289 6.80644 46.1912 6.48247C46.0606 6.15848 45.9951 5.81466 45.9951 5.451Z" fill="white"/>
<path d="M53.8178 8.14865C53.3841 8.14865 52.9504 8.08255 52.5167 7.95031C52.09 7.81146 51.7215 7.6164 51.4119 7.36516L51.8662 6.6709C52.1897 6.8957 52.5099 7.06762 52.8265 7.18664C53.1432 7.29904 53.4666 7.35522 53.7969 7.35522C54.1342 7.35522 54.3993 7.29241 54.5921 7.16679C54.7917 7.04117 54.8916 6.86265 54.8916 6.63123C54.8916 6.41303 54.7814 6.25436 54.5611 6.15517C54.3409 6.05599 53.9968 5.94691 53.5286 5.82789C53.1913 5.74194 52.902 5.65928 52.6611 5.57993C52.4202 5.50061 52.2242 5.40804 52.0726 5.30224C51.9213 5.19644 51.8111 5.07413 51.7424 4.93529C51.6734 4.79644 51.6389 4.62783 51.6389 4.42946C51.6389 4.165 51.6905 3.93027 51.794 3.7253C51.904 3.52033 52.052 3.34843 52.2377 3.20958C52.4306 3.06412 52.6543 2.95502 52.9091 2.88229C53.1638 2.80956 53.4389 2.77319 53.735 2.77319C54.1413 2.77319 54.5198 2.8327 54.871 2.95172C55.2219 3.07073 55.5353 3.24264 55.8104 3.46745L55.3251 4.12201C54.8226 3.73852 54.2893 3.54678 53.7246 3.54678C53.4357 3.54678 53.1913 3.6063 52.9916 3.7253C52.7988 3.83772 52.7024 4.01953 52.7024 4.27079C52.7024 4.37657 52.7231 4.46583 52.7643 4.53857C52.8059 4.6113 52.8711 4.67411 52.9607 4.72701C53.0571 4.77991 53.1774 4.82949 53.3222 4.87576C53.4734 4.91544 53.6595 4.96174 53.8797 5.01464C54.2445 5.10058 54.5576 5.18653 54.8191 5.27248C55.0877 5.35845 55.308 5.46094 55.4801 5.57993C55.6521 5.69236 55.7794 5.82789 55.862 5.98658C55.9448 6.13866 55.9861 6.32378 55.9861 6.54197C55.9861 7.03786 55.7897 7.43128 55.3976 7.7222C55.0119 8.00652 54.4853 8.14865 53.8178 8.14865Z" fill="white"/>
<path d="M26.5025 6.84265C26.5025 7.57298 25.8861 8.16501 25.1257 8.16501C24.3654 8.16501 23.749 7.57298 23.749 6.84265C23.749 6.11232 24.3654 5.52026 25.1257 5.52026C25.8861 5.52026 26.5025 6.11232 26.5025 6.84265Z" fill="#D62C2C"/>
</g>
<defs>
<clipPath id="clip0_122_25004">
<rect width="56" height="7.38182" fill="white" transform="translate(0 0.809082)"/>
</clipPath>
</defs>
</svg>
