<svg width="93" height="73" viewBox="0 0 93 73" fill="none" xmlns="http://www.w3.org/2000/svg">
<path id="Vector" d="M46.5 39.2411V48.4573C61.5713 48.4573 73.3062 33.3663 68.376 16.9972C66.2215 9.84395 60.7374 4.15978 53.8359 1.9267C38.0426 -3.18335 23.4827 8.97959 23.4827 24.6007H32.3951C32.3962 24.6007 32.3972 24.5985 32.3972 24.5985C32.3987 14.7947 41.7588 7.21581 51.703 10.956C55.3872 12.3415 58.3255 15.3867 59.6634 19.2049C63.2723 29.5056 55.9706 39.2038 46.5205 39.2176V30.0312L46.5191 30.0305H37.6341C37.6334 30.0305 37.6326 30.032 37.6326 30.032V39.2411H46.5ZM37.6308 46.3194H30.8042L30.8028 46.3175V39.2411H37.6326V46.3179C37.6326 46.3179 37.6319 46.3194 37.6308 46.3194ZM30.8075 39.2411H25.0847C25.0822 39.2411 25.0804 39.2396 25.0804 39.2396V33.3107C25.0804 33.3107 25.0822 33.3062 25.0847 33.3062H30.8031C30.8057 33.3062 30.8075 33.3081 30.8075 33.3081V39.2411ZM8.4528 57.8063C7.29422 56.9729 5.85238 56.5507 4.16759 56.5507H0.5V68.611H4.16759C5.84842 68.611 7.29062 68.1652 8.45424 67.2867C9.0877 66.8207 9.58511 66.1698 9.93352 65.3528C10.2798 64.5395 10.4554 63.5808 10.4554 62.5027C10.4554 61.4369 10.2798 60.4901 9.9328 59.6888C9.58511 58.883 9.08698 58.2499 8.4528 57.8063ZM2.64225 58.589H3.79327C5.07423 58.589 6.12844 58.8501 6.92818 59.3661C7.81538 59.9208 8.26565 60.9758 8.26565 62.5023C8.26565 64.0747 7.8143 65.1775 6.92458 65.7814H6.92386C6.15831 66.3059 5.11022 66.5723 3.80911 66.5723H2.64225V58.589ZM11.9573 68.611H14.0197V60.1166H11.9573V68.611ZM13.0083 56.4022C12.6556 56.4022 12.3522 56.5316 12.1074 56.7853C11.8602 57.0297 11.7346 57.3397 11.7346 57.706C11.7346 58.0716 11.8595 58.3861 12.106 58.6412C12.3522 58.8971 12.656 59.0266 13.0083 59.0266C13.3607 59.0266 13.6641 58.8971 13.911 58.6412C14.1579 58.3857 14.2824 58.0708 14.2824 57.706C14.2824 57.34 14.1572 57.0304 13.911 56.7872C13.7937 56.6628 13.6531 56.5645 13.4979 56.4983C13.3427 56.4321 13.1761 56.3994 13.0083 56.4022ZM21.5089 60.8266C20.887 60.2528 20.1927 59.9186 19.4419 59.9186C18.3035 59.9186 17.3572 60.3267 16.6298 61.131C15.8934 61.9286 15.5195 62.9552 15.5195 64.1825C15.5195 65.3811 15.8873 66.4044 16.6144 67.2251C17.3468 68.019 18.2984 68.4211 19.4419 68.4211C20.237 68.4211 20.9205 68.1917 21.4772 67.7384V67.9343C21.4772 68.639 21.2951 69.1874 20.9363 69.5638C20.5774 69.9398 20.08 70.1304 19.4581 70.1304C18.5061 70.1304 17.9094 69.7425 17.183 68.7252L15.7786 70.1237L15.8164 70.1789C16.1198 70.6199 16.5845 71.0519 17.1978 71.4622C17.8111 71.8707 18.582 72.0785 19.4898 72.0785C20.7142 72.0785 21.7044 71.6872 22.4339 70.9161C23.1671 70.1405 23.5389 69.1023 23.5389 67.831V60.1163H21.5089V60.8262V60.8266ZM20.968 65.843C20.6077 66.2675 20.1448 66.4731 19.5535 66.4731C18.9621 66.4731 18.5018 66.2675 18.1465 65.8437C17.7935 65.4222 17.6139 64.8626 17.6139 64.1822C17.6139 63.4905 17.7935 62.9246 18.1469 62.4997C18.4971 62.0796 18.9704 61.8663 19.5535 61.8663C20.1441 61.8663 20.6073 62.0737 20.968 62.5008C21.3268 62.9253 21.5089 63.4909 21.5089 64.1822C21.5089 64.8626 21.3268 65.4218 20.968 65.843ZM25.3039 68.611H27.3663V60.1166H25.3039V68.611ZM26.3549 56.4022C26.0025 56.4022 25.6988 56.5316 25.454 56.7853C25.2067 57.0297 25.0811 57.3397 25.0811 57.706C25.0811 58.0716 25.206 58.3861 25.4526 58.6412C25.6988 58.8971 26.0025 59.0266 26.3552 59.0266C26.5231 59.0293 26.6897 58.9966 26.8449 58.9303C27.0001 58.8641 27.1406 58.7657 27.2579 58.6412C27.5045 58.3857 27.6294 58.0708 27.6294 57.706C27.6294 57.34 27.5034 57.0304 27.2579 56.7872C27.1406 56.6628 27 56.5646 26.8448 56.4984C26.6896 56.4322 26.5227 56.3995 26.3549 56.4022ZM31.8865 57.8216H29.8566V60.1166H28.6771V62.0647H29.8562V65.593C29.8562 66.6973 30.0689 67.4874 30.4889 67.941C30.91 68.3969 31.6576 68.6278 32.7111 68.6278C33.0462 68.6278 33.3834 68.6162 33.7131 68.5942L33.806 68.5875V66.6409L33.0991 66.6794C32.6078 66.6794 32.2803 66.5898 32.1244 66.4141C31.966 66.2351 31.8865 65.8568 31.8865 65.2901V62.0647H33.806V60.1166H31.8865V57.8216ZM40.8838 60.752C40.2586 60.1991 39.3948 59.9186 38.3161 59.9186C37.6298 59.9186 36.988 60.0745 36.4078 60.3796C35.8708 60.662 35.3435 61.1295 35.0085 61.7413L35.0293 61.7674L36.3499 63.0776C36.8937 62.1785 37.4987 61.8663 38.3007 61.8663C38.7315 61.8663 39.0889 61.9864 39.3639 62.2225C39.6374 62.4572 39.7706 62.7556 39.7706 63.1335V63.5461C39.2789 63.3881 38.7675 63.3064 38.2528 63.3036C37.2263 63.3036 36.3913 63.5536 35.7711 64.0471C35.1427 64.547 34.8245 65.2614 34.8245 66.172C34.8245 66.97 35.0927 67.6183 35.6243 68.1003C36.1606 68.5651 36.83 68.8013 37.6157 68.8013C38.4007 68.8013 39.1353 68.473 39.8022 67.9115V68.611H41.8326V63.1503C41.8326 62.1166 41.5133 61.3097 40.8838 60.752ZM37.2223 65.3651C37.4563 65.1961 37.7867 65.1107 38.2049 65.1107C38.7012 65.1107 39.2274 65.214 39.7706 65.4181V66.2515C39.3221 66.6831 38.7232 66.9024 37.99 66.9024C37.633 66.9024 37.3555 66.8204 37.1647 66.6573C36.9776 66.4984 36.8865 66.2959 36.8865 66.0396C36.8865 65.7482 36.9963 65.5274 37.2223 65.3651ZM43.4756 68.611H45.5379V56.5503H43.4756V68.611ZM53.0207 68.7927C49.713 68.7927 47.0219 66.0038 47.0219 62.5754C47.0219 59.1471 49.7127 56.3578 53.0203 56.3578C56.328 56.3578 59.0188 59.1471 59.0188 62.5754C59.0188 66.0038 56.328 68.7927 53.0203 68.7927H53.0207ZM53.0207 58.5487C50.8784 58.5487 49.1361 60.355 49.1361 62.5754C49.1361 64.7954 50.8784 66.6014 53.0203 66.6014C55.1622 66.6014 56.9049 64.7958 56.9049 62.5754C56.9049 60.355 55.1622 58.5491 53.0203 58.5491L53.0207 58.5487ZM66.3723 65.5736C66.0034 66.0023 65.6262 66.3738 65.3354 66.5667V66.5671C65.0503 66.7566 64.6904 66.8532 64.266 66.8532C63.6581 66.8532 63.1697 66.6238 62.7716 66.1511C62.3757 65.6811 62.1753 65.0775 62.1753 64.3553C62.1753 63.6338 62.3732 63.0309 62.7641 62.5642C63.1568 62.0942 63.6427 61.8666 64.2498 61.8666C64.9143 61.8666 65.6147 62.2945 66.2146 63.0302L67.5777 61.6753C66.6887 60.4763 65.5553 59.9186 64.2023 59.9186C63.07 59.9186 62.0885 60.3461 61.2852 61.1888C60.4861 62.0252 60.0809 63.091 60.0809 64.3553C60.0809 65.6199 60.4858 66.6883 61.2841 67.5307C62.0831 68.3738 63.065 68.8013 64.2023 68.8013C65.6953 68.8013 66.9007 68.1331 67.713 66.9092L66.3723 65.5736ZM74.8362 61.3033C74.5439 60.881 74.1459 60.5412 73.652 60.2924C73.1604 60.0443 72.5867 59.9186 71.9482 59.9186C70.7972 59.9186 69.8549 60.3588 69.148 61.228C68.4613 62.0897 68.1136 63.1615 68.1136 64.4134C68.1136 65.7005 68.4951 66.7663 69.2481 67.5803C69.9967 68.3902 70.9991 68.8013 72.2268 68.8013C73.6175 68.8013 74.7588 68.2182 75.6186 67.0685L75.6651 67.0065L74.3197 65.6665C74.1952 65.8225 74.0184 65.9993 73.8568 66.1567C73.6535 66.3559 73.462 66.51 73.2576 66.6156C72.9491 66.7745 72.6036 66.8532 72.2167 66.8532C71.6455 66.8532 71.1722 66.679 70.8105 66.3354C70.4721 66.0138 70.2742 65.5804 70.2216 65.045H75.6852L75.7039 64.265C75.7039 63.7129 75.6312 63.1809 75.4884 62.6832C75.3469 62.1887 75.1264 61.7223 74.8362 61.3033ZM70.3289 63.3032C70.4282 62.8966 70.6089 62.5586 70.8677 62.296C71.147 62.0106 71.5109 61.8663 71.9485 61.8663C72.4488 61.8663 72.8357 62.0136 73.0988 62.3053C73.3429 62.5747 73.4804 62.9101 73.5092 63.3032H70.3289ZM82.7562 60.752C82.1311 60.1991 81.2669 59.9186 80.1886 59.9186C79.5022 59.9186 78.8605 60.0745 78.2803 60.3796C77.7429 60.662 77.2156 61.1295 76.8809 61.7413L76.9018 61.7674L78.2223 63.0776C78.7662 62.1785 79.3712 61.8663 80.1731 61.8663C80.6039 61.8663 80.9613 61.9864 81.2363 62.2225C81.5098 62.4572 81.643 62.7556 81.643 63.1335V63.5461C81.1513 63.3881 80.6397 63.3064 80.1249 63.3036C79.0991 63.3036 78.2633 63.5536 77.6432 64.0471C77.0151 64.547 76.6966 65.2614 76.6966 66.172C76.6966 66.97 76.9651 67.6183 77.4967 68.1003C78.0326 68.5651 78.7024 68.8013 79.4878 68.8013C80.2731 68.8013 81.0077 68.473 81.6743 67.9115V68.611H83.705V63.1503C83.705 62.1166 83.3857 61.3097 82.7562 60.752ZM79.0948 65.3651C79.3287 65.1961 79.6588 65.1107 80.0773 65.1107C80.5737 65.1107 81.0999 65.214 81.643 65.4181V66.2515C81.1942 66.6831 80.5956 66.9024 79.8621 66.9024C79.5054 66.9024 79.2279 66.8204 79.0372 66.6573C78.85 66.4984 78.759 66.2959 78.759 66.0396C78.759 65.7482 78.8687 65.5274 79.0948 65.3651ZM91.6384 60.9187C91.0639 60.2554 90.257 59.9186 89.2388 59.9186C88.4207 59.9186 87.7562 60.1622 87.2592 60.6423V60.1163H85.2368V68.611H87.2991V63.9262C87.2991 63.2827 87.4467 62.7717 87.7383 62.4068C88.0291 62.0435 88.4286 61.8663 88.9602 61.8663C89.4274 61.8663 89.7812 62.0244 90.0425 62.3494C90.3048 62.6758 90.4377 63.1253 90.4377 63.6871V68.611H92.5V63.6871C92.5 62.5105 92.2103 61.5794 91.6384 60.9191V60.9187Z" fill="#0080FF"/>
</svg>
