<svg width="179" height="165" viewBox="0 0 179 165" fill="none" xmlns="http://www.w3.org/2000/svg">
<g id="1" opacity="0.8">
<g id="Background_Simple">
<g id="Group">
<path id="Vector" opacity="0.7" d="M24.3191 55.1384C24.3191 55.1384 14.3391 78.8944 28.3634 102.824C42.3877 126.755 71.2801 139.389 94.4033 150.195C117.527 161.001 141.538 155.739 152.949 138.039C164.359 120.338 148.708 107.702 148.689 82.4608C148.671 57.2191 152.787 50.5359 137.963 29.2106C123.138 7.88504 86.7475 3.16538 59.2384 18.982C31.7297 34.7985 24.3191 55.1384 24.3191 55.1384Z" fill="#33B6D8"/>
</g>
<g id="Group_2">
<path id="Vector_2" d="M69.434 8.05402C57.2939 9.90069 45.6564 13.9646 35.7688 20.9903C21.3847 31.2108 13.4056 46.4904 12.5732 63.1072C12.0237 74.0755 14.8652 84.7704 18.2973 95.1852C22.7125 108.584 25.5611 123.845 34.7814 135.297C49.1344 153.125 76.8779 160.635 100.079 157.445C115.068 155.384 130.906 147.537 135.517 133.354C137.224 128.103 138.056 122.461 140.974 117.609C144.47 111.794 150.813 108.398 155.627 103.664C161.575 97.8157 163.971 90.5299 165.453 82.8224C168.696 65.9548 164.268 48.0827 153.575 34.0907C142.417 19.4885 125.862 11.6563 107.067 8.57343C105.004 8.23518 102.931 7.94973 100.852 7.70949C90.5303 6.51688 79.7988 6.47728 69.434 8.05402Z" fill="#33B6D8"/>
<path id="Vector_3" opacity="0.7" d="M69.434 8.05402C57.2939 9.90069 45.6564 13.9646 35.7688 20.9903C21.3847 31.2108 13.4056 46.4904 12.5732 63.1072C12.0237 74.0755 14.8652 84.7704 18.2973 95.1852C22.7125 108.584 25.5611 123.845 34.7814 135.297C49.1344 153.125 76.8779 160.635 100.079 157.445C115.068 155.384 130.906 147.537 135.517 133.354C137.224 128.103 138.056 122.461 140.974 117.609C144.47 111.794 150.813 108.398 155.627 103.664C161.575 97.8157 163.971 90.5299 165.453 82.8224C168.696 65.9548 164.268 48.0827 153.575 34.0907C142.417 19.4885 125.862 11.6563 107.067 8.57343C105.004 8.23518 102.931 7.94973 100.852 7.70949C90.5303 6.51688 79.7988 6.47728 69.434 8.05402Z" fill="white"/>
</g>
</g>
<g id="Note">
<g id="Group_3">
<path id="Vector_4" opacity="0.2" d="M72.0591 126.278L102.016 121.126C102.016 121.126 108.796 140.847 110.165 143.397L109.442 144.946L109.894 147.536L80.1277 153.78L77.7409 152.045L72.0591 126.278Z" fill="black" fill-opacity="0.7"/>
<g id="Group_4">
<g id="Group_5">
<path id="Vector_5" d="M99.8566 119.013L70.8828 125.337L77.7429 152.045L106.717 145.721L99.8566 119.013Z" fill="#33B6D8"/>
<g id="Clip path group">
<mask id="mask0_114_23489" style="mask-type:luminance" maskUnits="userSpaceOnUse" x="70" y="119" width="37" height="34">
<g id="XMLID_00000017489980324569976050000006513873976989649312_">
<path id="Vector_6" d="M99.8566 119.013L70.8828 125.337L77.7429 152.045L106.717 145.721L99.8566 119.013Z" fill="white"/>
</g>
</mask>
<g mask="url(#mask0_114_23489)">
<path id="Vector_7" opacity="0.2" d="M101.705 126.217L106.512 144.932L78.8833 150.962C75.5532 143.281 73.0071 133.612 73.0071 133.612L101.705 126.217Z" fill="black" fill-opacity="0.7"/>
</g>
</g>
<path id="Vector_8" d="M99.8566 119.013L70.8828 125.337L77.7429 152.045L106.717 145.721L99.8566 119.013Z" stroke="#263238" stroke-miterlimit="10" stroke-linecap="round" stroke-linejoin="round"/>
</g>
<g id="Group_6">
<path id="Vector_9" d="M107.617 144.019C100.378 145.599 90.1202 147.085 83.9339 147.923C80.6976 148.358 78.5711 148.615 78.5711 148.615C75.8284 143.981 70.8816 125.337 70.8816 125.337L99.8556 119.014C99.9107 119.243 99.9616 119.469 100.016 119.695C103.472 134.126 107.617 144.019 107.617 144.019Z" fill="white"/>
<g id="Clip path group_2">
<mask id="mask1_114_23489" style="mask-type:luminance" maskUnits="userSpaceOnUse" x="70" y="119" width="38" height="30">
<g id="XMLID_00000075132171743085932150000008299875158193601677_">
<path id="Vector_10" d="M107.617 144.019C100.378 145.599 90.1202 147.085 83.9339 147.923C80.6976 148.358 78.5711 148.615 78.5711 148.615C75.8284 143.981 70.8816 125.337 70.8816 125.337L99.8556 119.014C99.9107 119.243 99.9616 119.469 100.016 119.695C103.472 134.126 107.617 144.019 107.617 144.019Z" fill="white"/>
</g>
</mask>
<g mask="url(#mask1_114_23489)">
<path id="Vector_11" opacity="0.4" d="M107.617 144.019C100.378 145.599 90.1202 147.085 83.934 147.923C79.2879 145.074 78.167 142.282 78.2232 139.621C78.2862 136.457 93.2269 139.548 96.3494 136.416C98.5769 134.183 98.5125 124.699 100.016 119.694C103.472 134.126 107.617 144.019 107.617 144.019Z" fill="#33B6D8"/>
</g>
</g>
<path id="Vector_12" d="M107.617 144.019C100.378 145.599 90.1202 147.085 83.9339 147.923C80.6976 148.358 78.5711 148.615 78.5711 148.615C75.8284 143.981 70.8816 125.337 70.8816 125.337L99.8556 119.014C99.9107 119.243 99.9616 119.469 100.016 119.695C103.472 134.126 107.617 144.019 107.617 144.019Z" stroke="#263238" stroke-miterlimit="10" stroke-linecap="round" stroke-linejoin="round"/>
</g>
<path id="Vector_13" d="M75.7693 129.376C76.1627 128.956 76.6364 128.6 77.1623 128.331C77.3058 128.67 77.4494 129.008 77.5929 129.347C78.0934 129.179 78.5939 129.012 79.0944 128.844C79.5952 128.676 80.1516 128.461 80.3431 128.002C80.6188 128.606 81.5689 128.504 82.2455 128.303C86.9289 126.914 91.7185 125.829 96.5669 125.06" stroke="#263238" stroke-miterlimit="10" stroke-linecap="round" stroke-linejoin="round"/>
<path id="Vector_14" d="M76.4982 133.071C76.185 132.922 76.4434 132.406 76.7946 132.431C77.1458 132.456 77.3703 132.807 77.3982 133.131C77.7033 133.101 77.9725 132.872 78.0312 132.595C78.1966 132.701 78.362 132.808 78.5274 132.914C78.3555 132.687 78.4397 132.333 78.6985 132.193C78.9573 132.054 79.3339 132.159 79.4639 132.409C79.4281 132.034 79.5867 131.491 79.983 131.579C80.1133 131.608 80.2093 131.707 80.3181 131.779C80.7892 132.093 81.5722 131.793 81.6635 131.264C82.0537 131.674 82.7511 131.617 83.3346 131.526C85.0727 131.253 86.8104 130.98 88.5485 130.707C88.5961 130.404 88.7619 130.013 89.0905 130.054C89.2817 130.078 89.4052 130.249 89.572 130.339C89.808 130.466 90.1044 130.418 90.3714 130.365C92.7181 129.898 95.0244 129.258 97.2611 128.455" stroke="#263238" stroke-miterlimit="10" stroke-linecap="round" stroke-linejoin="round"/>
<path id="Vector_15" d="M78.2932 137.287C78.9877 137.343 79.6955 137.253 80.3478 137.026C80.1011 136.583 80.2518 135.985 80.6854 135.688C80.8955 135.812 81.106 135.936 81.3162 136.06C83.849 136.007 86.3754 135.686 88.8295 135.106C89.9314 134.846 91.018 134.533 92.1038 134.222C94.1637 133.63 96.2233 133.038 98.2832 132.446" stroke="#263238" stroke-miterlimit="10" stroke-linecap="round" stroke-linejoin="round"/>
</g>
</g>
</g>
<g id="Glasses">
<g id="Group_7">
<path id="Vector_16" opacity="0.2" d="M126.173 20.2984L125.598 20.3314C125.014 20.3647 124.536 20.073 124.389 19.579C123.512 16.6255 120.297 14.9665 116.569 15.1794C113.209 15.3715 109.671 17.3244 107.621 20.0238C107.066 20.7534 106.217 21.2537 105.357 21.3029L102.497 21.4662C101.637 21.5154 100.944 21.1032 100.631 20.4231C99.4732 17.9072 96.5412 16.3238 93.181 16.5159C89.4528 16.7291 85.601 18.7916 83.6854 21.9048C83.365 22.4252 82.7761 22.778 82.1932 22.8113L81.6176 22.8443C81.3559 22.8592 81.1088 23.073 81.0666 23.3215L80.8393 24.6491C80.8042 24.8537 80.9191 25.0243 81.1185 25.0642L81.8155 25.2566C82.3622 25.4074 82.707 25.8641 82.674 26.436C82.4284 30.6633 85.6648 33.7699 90.2729 33.5066C94.7179 33.2525 98.9444 29.9485 100.325 25.8711C100.549 25.2107 101.182 24.6619 101.889 24.4986C102.724 24.3055 103.796 24.165 104.907 24.3029C105.58 24.3864 106.052 24.8715 106.05 25.5272C106.04 29.5344 109.21 32.4245 113.661 32.1704C118.269 31.9071 122.643 28.3659 123.855 24.0831C124.019 23.5036 124.528 22.9984 125.138 22.7813L125.915 22.5047C126.132 22.441 126.308 22.2539 126.343 22.0493L126.571 20.7217C126.613 20.4729 126.435 20.2835 126.173 20.2984ZM90.4645 32.3853C86.1817 32.6301 83.264 29.5212 83.96 25.4549C84.6559 21.389 88.7063 17.8821 92.9891 17.6372C97.2718 17.3924 100.19 20.5013 99.4936 24.5672C98.7973 28.6335 94.7472 32.1407 90.4645 32.3853ZM100.77 23.7115C100.787 23.4802 100.793 23.2522 100.79 23.0278C100.787 22.8427 100.972 22.6638 101.173 22.6522L106.299 22.3592C106.499 22.3477 106.626 22.509 106.559 22.6981C106.479 22.9245 106.407 23.1532 106.345 23.3842C104.139 22.7862 101.937 23.3169 100.77 23.7115ZM113.853 31.0488C109.57 31.2936 106.653 28.1847 107.348 24.1184C108.044 20.0525 112.095 16.5456 116.378 16.3007C120.66 16.0559 123.578 19.1648 122.882 23.2307C122.186 27.2973 118.135 30.8042 113.853 31.0488Z" fill="black" fill-opacity="0.7"/>
<path id="Vector_17" d="M122.496 21.1277L89.6471 25.1388C88.0784 25.3302 86.6711 26.1259 85.7743 27.3277L80.9649 33.7743C80.7741 34.0297 80.8929 34.3825 81.2073 34.4937C81.8703 34.728 82.621 34.5131 83.0238 33.9739L87.469 28.0204C88.0046 27.303 88.842 26.8251 89.7778 26.7027L122.617 22.414L122.496 21.1277Z" fill="#263238"/>
<path id="Vector_18" d="M78.1797 23.6673L111.311 23.1621C112.893 23.138 114.413 23.733 115.492 24.7999L121.281 30.5207C121.511 30.7475 121.45 31.1124 121.157 31.2652C120.539 31.5873 119.762 31.4771 119.277 30.9986L113.927 25.7156C113.282 25.0791 112.377 24.7203 111.432 24.7269L78.266 24.9566L78.1797 23.6673Z" fill="#263238"/>
<g id="Group_8">
<path id="Vector_19" d="M98.2606 25.6103C98.6684 25.6816 98.649 28.2411 97.7279 29.1195C96.8068 29.998 95.8563 27.8748 96.0986 27.1174C96.341 26.3597 96.9825 25.3869 98.2606 25.6103Z" fill="#33B6D8" stroke="#263238" stroke-miterlimit="10" stroke-linecap="round" stroke-linejoin="round"/>
<path id="Vector_20" d="M104.017 25.2813C103.621 25.3985 103.984 27.9362 105.015 28.7031C106.047 29.4697 106.706 27.2547 106.364 26.5307C106.022 25.8067 105.255 24.914 104.017 25.2813Z" fill="#33B6D8" stroke="#263238" stroke-miterlimit="10" stroke-linecap="round" stroke-linejoin="round"/>
</g>
<path id="Vector_21" opacity="0.5" d="M83.4928 19.5971C85.2258 18.2309 88.8935 15.9034 92.911 18.1167C96.9285 20.33 98.3157 22.7305 97.4898 25.9942C96.6639 29.2579 94.1361 33.6079 88.1793 32.8479C82.2229 32.0879 78.1109 23.8399 83.4928 19.5971Z" fill="#33B6D8"/>
<path id="Vector_22" opacity="0.5" d="M106.915 18.5414C108.648 17.1752 112.316 14.8481 116.333 17.061C120.35 19.274 121.738 21.6748 120.912 24.9385C120.086 28.2022 117.558 32.5522 111.601 31.7922C105.645 31.0323 101.533 22.7842 106.915 18.5414Z" fill="#33B6D8"/>
<path id="Vector_23" d="M123.18 20.6574L122.604 20.6904C122.021 20.7237 121.467 20.4412 121.2 19.9621C119.605 17.0967 115.95 15.4922 112.222 15.7051C108.862 15.8971 105.742 17.7986 104.308 20.4221C103.921 21.1313 103.18 21.618 102.32 21.6672L99.4592 21.8305C98.5993 21.8797 97.7988 21.4807 97.319 20.8214C95.5444 18.3814 92.1943 16.8495 88.8337 17.0416C85.1055 17.2544 81.6938 19.2631 80.4952 22.2879C80.2947 22.7938 79.7821 23.137 79.1992 23.1703L78.6236 23.2034C78.3619 23.2182 78.1625 23.4261 78.1789 23.6673L78.2656 24.9563C78.2788 25.155 78.436 25.3203 78.6476 25.3586L79.4001 25.544C79.9904 25.6896 80.449 26.1321 80.5518 26.6872C81.3125 30.7907 85.335 33.8003 89.9428 33.537C94.3877 33.2829 97.8829 30.0687 98.3086 26.109C98.3777 25.4678 98.8885 24.9339 99.5659 24.7741C100.366 24.5854 101.42 24.4471 102.579 24.5791C103.281 24.659 103.875 25.1292 104.03 25.7655C104.977 29.6548 108.88 32.4549 113.331 32.2005C117.939 31.9371 121.528 28.4926 121.732 24.3339C121.76 23.7713 122.156 23.2799 122.722 23.0684L123.444 22.7984C123.65 22.7361 123.783 22.5542 123.77 22.3556L123.683 21.0666C123.667 20.826 123.442 20.6425 123.18 20.6574ZM89.8701 32.449C85.5874 32.6938 81.8875 29.6812 81.6218 25.7335C81.3562 21.7857 84.6244 18.3751 88.9071 18.1303C93.1899 17.8854 96.8898 20.898 97.1554 24.8458C97.4211 28.7935 94.1529 32.2044 89.8701 32.449ZM98.2448 24.0132C98.2069 23.7884 98.1589 23.5673 98.1016 23.3495C98.0544 23.17 98.1997 22.9958 98.3998 22.9846L103.526 22.6915C103.726 22.68 103.893 22.8364 103.871 23.0202C103.844 23.24 103.826 23.4624 103.818 23.6865C101.439 23.109 99.3342 23.6281 98.2448 24.0132ZM113.259 31.1128C108.976 31.3576 105.276 28.3451 105.01 24.3973C104.745 20.4495 108.013 17.0389 112.296 16.7941C116.578 16.5492 120.278 19.5618 120.544 23.5096C120.81 27.457 117.541 30.8679 113.259 31.1128Z" fill="#757575" stroke="#263238" stroke-miterlimit="10" stroke-linecap="round" stroke-linejoin="round"/>
<path id="Vector_24" opacity="0.4" d="M84.13 29.9103C84.13 29.9103 81.2621 26.4182 83.2866 22.3589C85.1081 18.7071 89.3786 18.2913 91.3924 19.0747L86.9779 26.1592C87.5647 23.5132 88.8037 21.1273 88.8037 21.1273C88.8037 21.1273 84.9129 24.7537 84.13 29.9103Z" fill="white"/>
<path id="Vector_25" opacity="0.4" d="M107.463 28.3699C107.463 28.3699 104.595 24.8778 106.62 20.8185C108.441 17.1667 112.712 16.7509 114.725 17.5343L110.311 24.6187C110.643 22.0725 112.136 19.5869 112.136 19.5869C112.136 19.5869 108.246 23.2133 107.463 28.3699Z" fill="white"/>
</g>
</g>
<g id="Pen">
<g id="Group_9">
<path id="Vector_26" opacity="0.2" d="M23.4851 90.0378L24.5248 94.3374L25.709 89.4705L22.5934 40.85H20.469L23.4851 90.0378Z" fill="black" fill-opacity="0.7"/>
<g id="Group_10">
<g id="Group_11">
<path id="Vector_27" d="M21.5887 40.259L24.5247 89.166L23.4432 93.1874L21.887 89.3006L18.951 40.3936C18.9306 40.0544 19.2109 39.7656 19.5789 39.7468L20.8871 39.6802C21.2551 39.6614 21.5683 39.9197 21.5887 40.259Z" fill="#33B6D8"/>
<g id="Clip path group_3">
<mask id="mask2_114_23489" style="mask-type:luminance" maskUnits="userSpaceOnUse" x="18" y="39" width="7" height="55">
<g id="XMLID_00000085217057614726230800000013576445086174451328_">
<path id="Vector_28" d="M21.5887 40.259L24.5247 89.166L23.4432 93.1874L21.887 89.3006L18.951 40.3936C18.9306 40.0544 19.2109 39.7656 19.5789 39.7468L20.8871 39.6802C21.2551 39.6614 21.5683 39.9197 21.5887 40.259Z" fill="white"/>
</g>
</mask>
<g mask="url(#mask2_114_23489)">
<path id="Vector_29" opacity="0.2" d="M23.4429 93.1873L21.8867 89.3006L18.9508 40.3936C18.9303 40.0543 19.2107 39.7656 19.5787 39.7468L19.7609 39.7375L22.7183 89.0039L23.4429 93.1873Z" fill="black" fill-opacity="0.7"/>
</g>
</g>
<path id="Vector_30" d="M21.5887 40.259L24.5247 89.166L23.4432 93.1874L21.887 89.3006L18.951 40.3936C18.9306 40.0544 19.2109 39.7656 19.5789 39.7468L20.8871 39.6802C21.2551 39.6614 21.5683 39.9197 21.5887 40.259Z" stroke="#263238" stroke-miterlimit="10" stroke-linecap="round" stroke-linejoin="round"/>
</g>
<g id="Vector_31">
<path d="M19.8115 40.5748L22.6938 88.5862C22.7074 88.8162 22.9211 88.9921 23.1703 88.9796L23.4846 88.9634" fill="#33B6D8"/>
<path d="M19.8115 40.5748L22.6938 88.5862C22.7074 88.8162 22.9211 88.9921 23.1703 88.9796L23.4846 88.9634" stroke="#263238" stroke-miterlimit="10" stroke-linecap="round" stroke-linejoin="round"/>
</g>
</g>
</g>
</g>
<g id="Device">
<g id="Group_12">
<path id="Vector_32" opacity="0.2" d="M32.8469 99.1521L42.5527 40.6999C43.1742 36.9574 46.9693 34.388 51.029 34.9609L144.222 48.1094C148.282 48.6823 151.069 52.1806 150.448 55.9228L140.742 114.375C140.121 118.118 136.325 120.687 132.266 120.114L39.0729 106.966C35.0128 106.393 32.2254 102.895 32.8469 99.1521Z" fill="black" fill-opacity="0.7"/>
<g id="Group_13">
<path id="Vector_33" d="M43.4958 38.4754L42.6512 43.561L40.6214 43.2746C40.4281 43.2472 40.2952 43.0808 40.325 42.9026L41.0624 38.4625C41.0921 38.2843 41.2726 38.1619 41.4659 38.1893L43.4958 38.4754Z" fill="#33B6D8" stroke="#263238" stroke-miterlimit="10" stroke-linecap="round" stroke-linejoin="round"/>
<path id="Vector_34" d="M57.7469 36.4719L52.2297 35.6935L52.5405 33.8224C52.5702 33.6442 52.7506 33.5217 52.9439 33.5491L57.7612 34.2286C57.9545 34.256 58.0873 34.4223 58.0576 34.6005L57.7469 36.4719Z" fill="#33B6D8" stroke="#263238" stroke-miterlimit="10" stroke-linecap="round" stroke-linejoin="round"/>
<path id="Vector_35" d="M64.3099 37.398L58.7927 36.6195L59.1035 34.7484C59.1332 34.5702 59.3136 34.4478 59.5069 34.4751L64.3242 35.1549C64.5175 35.1823 64.6503 35.3487 64.6206 35.5269L64.3099 37.398Z" fill="#33B6D8" stroke="#263238" stroke-miterlimit="10" stroke-linecap="round" stroke-linejoin="round"/>
<path id="Vector_36" d="M31.773 97.8321L41.4787 39.3798C42.1002 35.6373 45.8953 33.0679 49.9551 33.6408L143.148 46.7893C147.208 47.3622 149.995 50.8605 149.374 54.6027L139.668 113.055C139.047 116.798 135.251 119.367 131.192 118.794L37.9989 105.646C33.9389 105.073 31.1515 101.575 31.773 97.8321Z" fill="#33B6D8" stroke="#263238" stroke-miterlimit="10" stroke-linecap="round" stroke-linejoin="round"/>
<path id="Vector_37" d="M131.558 118.072L37.8833 104.855C34.4097 104.365 32.0247 101.372 32.5563 98.1704L42.3358 39.2733C42.8674 36.0713 46.1145 33.8728 49.5882 34.3629L143.263 47.5794C146.737 48.0694 149.122 51.0625 148.59 54.2645L138.811 113.162C138.279 116.364 135.032 118.562 131.558 118.072Z" fill="#757575" stroke="#263238" stroke-miterlimit="10" stroke-linecap="round" stroke-linejoin="round"/>
<path id="Vector_38" d="M39.0197 68.9439C38.9893 69.1274 38.8031 69.2535 38.604 69.2254C38.405 69.1974 38.2682 69.0258 38.2987 68.8423C38.3291 68.6588 38.5153 68.5327 38.7143 68.5608C38.9134 68.5888 39.0501 68.7604 39.0197 68.9439Z" fill="#999999" stroke="#263238" stroke-miterlimit="10" stroke-linecap="round" stroke-linejoin="round"/>
<path id="Vector_39" d="M38.8464 72.0153C38.788 72.3664 38.4322 72.6073 38.0513 72.5538C37.6704 72.5 37.409 72.172 37.4674 71.8209C37.5257 71.4698 37.8816 71.2289 38.2625 71.2823C38.6434 71.3361 38.9047 71.6641 38.8464 72.0153Z" fill="#263238"/>
<path id="Vector_40" d="M40.0742 64.62C40.0158 64.9711 39.66 65.212 39.2791 65.1586C38.8982 65.1048 38.6368 64.7767 38.6948 64.4256C38.7532 64.0745 39.109 63.8336 39.4899 63.8871C39.8712 63.9405 40.1326 64.2689 40.0742 64.62Z" fill="#263238"/>
<path id="Vector_41" d="M38.31 74.0923C38.2674 74.348 38.0082 74.5239 37.7304 74.4846C37.453 74.4454 37.2622 74.2064 37.3048 73.9503C37.3474 73.6943 37.6066 73.5187 37.8844 73.558C38.1622 73.5973 38.3526 73.8362 38.31 74.0923Z" fill="#263238"/>
<path id="Vector_42" d="M146.24 53.2488L136.241 113.48C135.976 115.061 134.376 116.147 132.661 115.906L54.1835 104.834L52.483 104.594L46.0855 103.689L42.9888 103.254L38.5138 102.623L37.5365 102.485C35.8217 102.244 34.6439 100.766 34.9052 99.1848L44.9077 38.9532C45.1691 37.3725 46.7729 36.2868 48.4877 36.531L77.7829 40.6626L82.2149 41.2896L86.45 41.8869L91.8916 42.6525L93.8606 42.9297L143.612 49.9488C145.327 50.193 146.501 51.6681 146.24 53.2488Z" fill="#263238"/>
<g id="Group_14">
<g id="Group_15">
<g id="Group_16" opacity="0.1">
<path id="Vector_43" d="M72.6769 104.276L39.399 99.5811C38.9483 99.5174 38.6375 99.1277 38.7066 98.7125L42.012 78.8053C42.0811 78.3898 42.5039 78.1034 42.9547 78.1671L76.2326 82.8623C76.6833 82.926 76.994 83.3157 76.9249 83.7312L73.6195 103.638C73.5508 104.054 73.128 104.34 72.6769 104.276ZM42.911 78.4297C42.6174 78.3885 42.3421 78.5746 42.2974 78.8455L38.992 98.7528C38.9472 99.0231 39.1491 99.2768 39.4427 99.3184L72.7206 104.014C73.0141 104.055 73.2894 103.869 73.3342 103.598L76.6396 83.6909C76.6847 83.4203 76.4821 83.1666 76.1889 83.125L42.911 78.4297Z" fill="white"/>
</g>
<g id="Group_17">
<path id="Vector_44" opacity="0.4" d="M52.9478 90.4813L60.401 94.3776C60.8775 93.5731 61.2133 92.6801 61.3722 91.7218C61.7316 89.5573 61.1245 87.4631 59.8503 85.8079L52.9478 90.4813Z" fill="#33B6D8"/>
<path id="Vector_45" opacity="0.6" d="M53.0193 90.1029L59.6795 85.5934C58.792 84.5166 57.6139 83.6431 56.2313 83.0818L54.9188 85.9508L53.0193 90.1029Z" fill="#33B6D8"/>
<path id="Vector_46" d="M54.1551 82.5095L53.0012 89.4573L55.9647 82.9791C55.3923 82.7672 54.7873 82.6082 54.1551 82.5095Z" fill="#33B6D8"/>
<path id="Vector_47" opacity="0.1" d="M52.5529 90.4001L53.8696 82.4693C49.1251 81.872 44.7206 84.8901 43.9935 89.2699C43.7569 90.6962 43.9409 92.0914 44.4571 93.3513L52.5529 90.4001Z" fill="white"/>
<path id="Vector_48" opacity="0.2" d="M51.3529 98.5057C55.0113 99.0218 58.4857 97.378 60.2571 94.6083L52.6718 90.6431L44.5613 93.5995C45.7012 96.127 48.2032 98.0611 51.3529 98.5057Z" fill="#33B6D8"/>
</g>
<g id="Group_18">
<g id="Group_19">
<path id="Vector_49" d="M66.2809 87.0401L65.2921 86.9005C65.1696 86.8833 65.0855 86.7777 65.1045 86.6648L65.2559 85.7534C65.2745 85.6405 65.3891 85.563 65.5115 85.5805L66.5003 85.7201C66.6228 85.7372 66.7069 85.8428 66.6879 85.9557L66.5365 86.8671C66.5175 86.9797 66.4033 87.0572 66.2809 87.0401Z" fill="#33B6D8"/>
<g id="Group_20">
<g id="Group_21">
<path id="Vector_50" d="M71.8671 86.9701L67.5528 86.3612C67.4619 86.3483 67.3996 86.2701 67.4136 86.1863C67.4275 86.1025 67.5124 86.0451 67.6033 86.058L71.9176 86.6668C72.0085 86.6797 72.0708 86.7579 72.0568 86.8417C72.0429 86.9255 71.958 86.9829 71.8671 86.9701Z" fill="#33B6D8"/>
</g>
<g id="Group_22">
<path id="Vector_51" d="M70.4411 87.4443L67.4432 87.0213C67.3523 87.0084 67.29 86.9302 67.304 86.8464C67.3179 86.7625 67.4028 86.7051 67.4937 86.718L70.4916 87.141C70.5825 87.1539 70.6448 87.2321 70.6309 87.3159C70.6169 87.3998 70.532 87.4572 70.4411 87.4443Z" fill="#33B6D8"/>
</g>
</g>
</g>
<g id="Group_23">
<path id="Vector_52" opacity="0.6" d="M65.7897 89.9962L64.8009 89.8566C64.6784 89.8395 64.5943 89.7339 64.6133 89.621L64.7647 88.7096C64.7833 88.5967 64.8979 88.5192 65.0203 88.5366L66.0091 88.6762C66.1315 88.6934 66.2157 88.799 66.1967 88.9119L66.0453 89.8233C66.0267 89.9362 65.9121 90.0137 65.7897 89.9962Z" fill="#33B6D8"/>
<g id="Group_24">
<g id="Group_25">
<path id="Vector_53" d="M71.3764 89.9266L67.0621 89.3178C66.9712 89.3049 66.9089 89.2267 66.9229 89.1429C66.9368 89.0591 67.0217 89.0016 67.1126 89.0145L71.4269 89.623C71.5178 89.6359 71.5801 89.7141 71.5661 89.7979C71.5522 89.8821 71.4673 89.9395 71.3764 89.9266Z" fill="#33B6D8"/>
</g>
<g id="Group_26">
<path id="Vector_54" d="M69.9504 90.4009L66.9525 89.9778C66.8616 89.9649 66.7993 89.8867 66.8132 89.8029C66.8272 89.7191 66.912 89.6617 67.003 89.6745L70.0009 90.0976C70.0918 90.1105 70.1541 90.1887 70.1401 90.2725C70.1262 90.3563 70.0413 90.4137 69.9504 90.4009Z" fill="#33B6D8"/>
</g>
</g>
</g>
<g id="Group_27">
<path id="Vector_55" opacity="0.4" d="M65.2989 92.953L64.3101 92.8134C64.1877 92.7963 64.1036 92.6907 64.1225 92.5778L64.274 91.6664C64.2926 91.5535 64.4072 91.4759 64.5296 91.4934L65.5184 91.633C65.6408 91.6502 65.7249 91.7558 65.706 91.8686L65.5545 92.7801C65.5359 92.8926 65.4214 92.9702 65.2989 92.953Z" fill="#33B6D8"/>
<g id="Group_28">
<g id="Group_29">
<path id="Vector_56" d="M70.8857 92.883L66.5714 92.2742C66.4805 92.2613 66.4182 92.1831 66.4321 92.0993C66.4461 92.0155 66.5309 91.958 66.6219 91.9709L70.9361 92.5798C71.0271 92.5926 71.0894 92.6708 71.0754 92.7547C71.0614 92.8385 70.9766 92.8959 70.8857 92.883Z" fill="#33B6D8"/>
</g>
<g id="Group_30">
<path id="Vector_57" d="M69.4597 93.3573L66.4618 92.9342C66.3708 92.9213 66.3086 92.8431 66.3225 92.7593C66.3365 92.6755 66.4213 92.6181 66.5123 92.631L69.5101 93.054C69.6011 93.0669 69.6634 93.1451 69.6494 93.2289C69.6354 93.3127 69.5506 93.3701 69.4597 93.3573Z" fill="#33B6D8"/>
</g>
</g>
</g>
<g id="Group_31">
<path id="Vector_58" opacity="0.2" d="M64.808 95.9092L63.8192 95.7696C63.6967 95.7524 63.6126 95.6468 63.6316 95.534L63.783 94.6225C63.8016 94.5097 63.9162 94.4321 64.0386 94.4496L65.0274 94.5892C65.1499 94.6064 65.234 94.712 65.215 94.8248L65.0636 95.7363C65.0446 95.8491 64.9304 95.9267 64.808 95.9092Z" fill="#33B6D8"/>
<g id="Group_32">
<g id="Group_33">
<path id="Vector_59" d="M70.3947 95.8396L66.0804 95.2307C65.9895 95.2179 65.9272 95.1397 65.9412 95.0558C65.9551 94.972 66.04 94.9146 66.1309 94.9275L70.4452 95.536C70.5361 95.5488 70.5984 95.6271 70.5844 95.7109C70.5705 95.795 70.4856 95.8525 70.3947 95.8396Z" fill="#33B6D8"/>
</g>
<g id="Group_34">
<path id="Vector_60" d="M68.9687 96.3138L65.9708 95.8908C65.8799 95.8779 65.8176 95.7997 65.8315 95.7159C65.8455 95.632 65.9304 95.5746 66.0213 95.5875L69.0192 96.0106C69.1101 96.0234 69.1724 96.1016 69.1584 96.1855C69.1445 96.2693 69.0596 96.3267 68.9687 96.3138Z" fill="#33B6D8"/>
</g>
</g>
</g>
<g id="Group_35">
<path id="Vector_61" opacity="0.1" d="M64.3172 98.866L63.3284 98.7264C63.206 98.7092 63.1219 98.6036 63.1409 98.4908L63.2923 97.5793C63.3109 97.4665 63.4255 97.3889 63.5479 97.4064L64.5367 97.546C64.6591 97.5631 64.7433 97.6688 64.7243 97.7816L64.5729 98.6931C64.5539 98.8056 64.4397 98.8831 64.3172 98.866Z" fill="white"/>
<g id="Group_36">
<g id="Group_37">
<path id="Vector_62" d="M69.9035 98.796L65.5892 98.1875C65.4983 98.1747 65.436 98.0964 65.45 98.0126C65.4639 97.9288 65.5488 97.8714 65.6397 97.8842L69.9539 98.4931C70.0449 98.506 70.1072 98.5842 70.0932 98.668C70.0793 98.7515 69.9944 98.8089 69.9035 98.796Z" fill="#33B6D8"/>
</g>
<g id="Group_38">
<path id="Vector_63" d="M68.4775 99.2702L65.4796 98.8472C65.3887 98.8343 65.3264 98.7561 65.3403 98.6723C65.3543 98.5885 65.4391 98.531 65.5301 98.5439L68.528 98.967C68.6189 98.9798 68.6812 99.0581 68.6672 99.1419C68.6533 99.2257 68.5684 99.2831 68.4775 99.2702Z" fill="#33B6D8"/>
</g>
</g>
</g>
</g>
</g>
<g id="Group_39" opacity="0.1">
<path id="Vector_64" d="M135.38 91.2071L81.2785 83.5738C80.8277 83.5102 80.4039 83.7949 80.3348 84.2104L80.1067 85.5829L80.0631 85.8459L79.7555 87.6969L79.7119 87.9599L79.4051 89.8085L79.3614 90.0715L79.0546 91.9202L79.0109 92.1832L78.7037 94.0345L78.6601 94.2975L78.3532 96.1462L78.3096 96.4092L78.0028 98.2579L77.9591 98.5209L77.6516 100.372L77.6079 100.635L77.3011 102.484L77.2574 102.747L77.0294 104.119C76.9603 104.535 77.2721 104.926 77.7228 104.99L131.825 112.623C132.276 112.686 132.697 112.399 132.766 111.983L132.994 110.611L133.038 110.348L133.345 108.499L133.388 108.236L133.696 106.385L133.739 106.122L134.046 104.273L134.09 104.01L134.397 102.162L134.44 101.899L134.748 100.048L134.792 99.7848L135.098 97.9361L135.142 97.6731L135.449 95.8244L135.493 95.5614L135.8 93.7105L135.844 93.4474L136.072 92.075C136.141 91.6589 135.831 91.2708 135.38 91.2071ZM132.481 111.942C132.436 112.213 132.16 112.4 131.869 112.358L77.7665 104.725C77.4726 104.684 77.2696 104.429 77.3147 104.158L77.5427 102.786L132.709 110.569L132.481 111.942ZM132.752 110.306L77.5861 102.523L77.8929 100.674L133.059 108.457L132.752 110.306ZM133.103 108.194L77.9369 100.411L78.2441 98.5598L133.41 106.343L133.103 108.194ZM133.454 106.081L78.2877 98.2971L78.5945 96.4485L133.761 104.232L133.454 106.081ZM133.805 103.969L78.6386 96.1858L78.9454 94.3371L134.111 102.121L133.805 103.969ZM134.155 101.857L78.9891 94.0744L79.2966 92.2235L134.463 100.007L134.155 101.857ZM134.506 99.7435L79.3403 91.9601L79.6471 90.1115L134.813 97.8949L134.506 99.7435ZM134.857 97.6322L79.6907 89.8488L79.9975 88.0001L135.164 95.7835L134.857 97.6322ZM135.207 95.5205L80.0412 87.7371L80.3487 85.8862L135.515 93.6695L135.207 95.5205ZM80.3924 85.6231L80.6205 84.2507C80.6656 83.9797 80.9412 83.7953 81.2351 83.8369L135.337 91.4701C135.628 91.511 135.832 91.7631 135.786 92.0341L135.558 93.4065L80.3924 85.6231Z" fill="white"/>
</g>
<g id="Group_40">
<g id="Group_41" opacity="0.1">
<path id="Vector_65" d="M141.161 55.677L48.9664 42.6694C48.4523 42.5968 47.9698 42.9235 47.891 43.3974L42.7251 74.5085C42.6463 74.9823 43.0007 75.4272 43.5148 75.4998L135.709 88.5074C136.223 88.58 136.705 88.2533 136.784 87.7794L141.95 56.6683C142.029 56.1941 141.675 55.7496 141.161 55.677ZM65.9668 60.1505L72.3796 61.0554L71.8226 64.4111L65.4097 63.5063L65.9668 60.1505ZM65.1244 63.466L58.7116 62.5611L59.2686 59.2054L65.6815 60.1102L65.1244 63.466ZM72.665 61.0956L79.0778 62.0005L78.5208 65.3562L72.1079 64.4514L72.665 61.0956ZM105.914 65.5176L99.5014 64.6128L100.058 61.257L106.471 62.1618L105.914 65.5176ZM106.757 62.2021L113.169 63.107L112.612 66.4627L106.2 65.5579L106.757 62.2021ZM86.0613 62.9855L92.4742 63.8904L91.9171 67.2462L85.5043 66.3413L86.0613 62.9855ZM85.219 66.301L78.8061 65.3962L79.3631 62.0404L85.776 62.9453L85.219 66.301ZM92.7595 63.9306L99.1724 64.8355L98.6153 68.1913L92.2025 67.2864L92.7595 63.9306ZM99.4573 64.8758L105.87 65.7806L105.313 69.1364L98.9003 68.2315L99.4573 64.8758ZM99.216 64.5725L92.8032 63.6676L93.3602 60.3119L99.7731 61.2167L99.216 64.5725ZM92.5178 63.6274L86.105 62.7225L86.662 59.3667L93.0749 60.2716L92.5178 63.6274ZM85.8197 62.6826L79.4068 61.7777L79.9639 58.422L86.3767 59.3268L85.8197 62.6826ZM79.1215 61.7375L72.7086 60.8326L73.2657 57.4768L79.6785 58.3817L79.1215 61.7375ZM78.4771 65.6189L77.92 68.9747L71.5072 68.0698L72.0642 64.7141L78.4771 65.6189ZM78.7624 65.6592L85.1753 66.564L84.6182 69.9198L78.2054 69.015L78.7624 65.6592ZM85.4602 66.6043L91.8731 67.5092L91.316 70.8649L84.9032 69.9601L85.4602 66.6043ZM92.1584 67.5491L98.5713 68.454L98.0142 71.8097L91.6014 70.9049L92.1584 67.5491ZM98.8566 68.4942L105.269 69.3991L104.712 72.7548L98.2995 71.85L98.8566 68.4942ZM105.555 69.4393L111.968 70.3442L111.41 73.7L104.997 72.7951L105.555 69.4393ZM105.598 69.1763L106.155 65.8206L112.568 66.7254L112.011 70.0812L105.598 69.1763ZM112.854 66.7657L119.267 67.6705L118.709 71.0263L112.297 70.1214L112.854 66.7657ZM119.552 67.7108L125.965 68.6157L125.408 71.9714L118.995 71.0666L119.552 67.7108ZM119.596 67.4478L120.153 64.092L126.565 64.9969L126.008 68.3526L119.596 67.4478ZM119.311 67.4075L112.898 66.5027L113.455 63.1469L119.868 64.0518L119.311 67.4075ZM113.498 62.8842L114.055 59.5288L120.468 60.4336L119.911 63.7891L113.498 62.8842ZM113.213 62.844L106.8 61.9391L107.357 58.5837L113.77 59.4885L113.213 62.844ZM106.515 61.8988L100.102 60.994L100.659 57.6385L107.072 58.5434L106.515 61.8988ZM99.8168 60.9537L93.4039 60.0489L93.9609 56.6934L100.374 57.5983L99.8168 60.9537ZM93.1186 60.0089L86.7057 59.1041L87.2628 55.7486L93.6756 56.6535L93.1186 60.0089ZM86.4204 59.0638L80.0075 58.1589L80.5646 54.8035L86.9774 55.7084L86.4204 59.0638ZM79.7222 58.1187L73.3094 57.2138L73.8664 53.8584L80.2793 54.7632L79.7222 58.1187ZM73.024 57.1736L66.6112 56.2687L67.1682 52.9133L73.5811 53.8181L73.024 57.1736ZM72.9804 57.4366L72.4233 60.7923L66.0105 59.8875L66.5675 56.5317L72.9804 57.4366ZM65.7251 59.8472L59.3123 58.9424L59.8693 55.5866L66.2822 56.4915L65.7251 59.8472ZM59.027 58.9024L52.6141 57.9976L53.1711 54.6418L59.584 55.5467L59.027 58.9024ZM58.9833 59.1651L58.4262 62.5209L52.0134 61.616L52.5704 58.2603L58.9833 59.1651ZM58.3826 62.7839L57.8255 66.1397L51.4126 65.2348L51.9697 61.879L58.3826 62.7839ZM58.6679 62.8242L65.0807 63.729L64.5237 67.0848L58.1108 66.1799L58.6679 62.8242ZM65.3661 63.7693L71.7789 64.6741L71.2219 68.0299L64.809 67.125L65.3661 63.7693ZM71.1778 68.2926L70.6208 71.6484L64.2079 70.7435L64.765 67.3877L71.1778 68.2926ZM71.4632 68.3328L77.876 69.2377L77.319 72.5935L70.9061 71.6886L71.4632 68.3328ZM78.1613 69.2776L84.5742 70.1825L84.0171 73.5383L77.6043 72.6334L78.1613 69.2776ZM84.8595 70.2228L91.2724 71.1276L90.7153 74.4834L84.3025 73.5785L84.8595 70.2228ZM91.5577 71.1679L97.9706 72.0727L97.4135 75.4285L91.0006 74.5236L91.5577 71.1679ZM98.2559 72.113L104.669 73.0179L104.112 76.3736L97.6988 75.4688L98.2559 72.113ZM104.954 73.0578L111.367 73.9626L110.81 77.3184L104.397 76.4136L104.954 73.0578ZM111.652 74.0029L118.065 74.9078L117.508 78.2635L111.095 77.3587L111.652 74.0029ZM111.696 73.7399L112.253 70.3841L118.665 71.289L118.108 74.6448L111.696 73.7399ZM118.951 71.3292L125.364 72.2341L124.807 75.5899L118.394 74.685L118.951 71.3292ZM125.649 72.2744L132.062 73.1792L131.505 76.535L125.092 75.6301L125.649 72.2744ZM125.693 72.0114L126.25 68.6556L132.663 69.5604L132.105 72.9162L125.693 72.0114ZM126.294 68.3929L126.851 65.0371L133.264 65.942L132.707 69.2978L126.294 68.3929ZM126.894 64.7741L127.451 61.4187L133.864 62.3235L133.307 65.679L126.894 64.7741ZM126.609 64.7339L120.196 63.829L120.753 60.4736L127.166 61.3784L126.609 64.7339ZM120.797 60.2106L121.354 56.8548L127.767 57.7596L127.21 61.1154L120.797 60.2106ZM120.512 60.1706L114.099 59.2658L114.656 55.91L121.069 56.8149L120.512 60.1706ZM113.814 59.2255L107.401 58.3206L107.958 54.9649L114.371 55.8697L113.814 59.2255ZM107.116 58.2804L100.703 57.3755L101.26 54.0198L107.673 54.9246L107.116 58.2804ZM100.417 57.3353L94.0046 56.4304L94.5617 53.0746L100.975 53.9795L100.417 57.3353ZM93.7193 56.3905L87.3064 55.4856L87.8635 52.1298L94.2764 53.0347L93.7193 56.3905ZM87.0215 55.4454L80.6086 54.5405L81.1657 51.1847L87.5785 52.0896L87.0215 55.4454ZM80.3233 54.5002L73.9104 53.5954L74.4675 50.2396L80.8803 51.1445L80.3233 54.5002ZM73.6248 53.5551L67.2119 52.6503L67.769 49.2945L74.1818 50.1993L73.6248 53.5551ZM66.9269 52.6103L60.5141 51.7055L61.0711 48.3497L67.484 49.2546L66.9269 52.6103ZM66.8833 52.873L66.3262 56.2284L59.9134 55.3236L60.4704 51.9681L66.8833 52.873ZM59.628 55.2837L53.2152 54.3788L53.7722 51.0234L60.1851 51.9282L59.628 55.2837ZM52.9299 54.3385L46.517 53.4337L47.0741 50.0782L53.4869 50.9831L52.9299 54.3385ZM52.8862 54.6015L52.3291 57.9573L45.9163 57.0525L46.4733 53.6967L52.8862 54.6015ZM52.2851 58.2203L51.7281 61.5761L45.3152 60.6712L45.8722 57.3155L52.2851 58.2203ZM51.6844 61.8388L51.1273 65.1945L44.7145 64.2897L45.2715 60.9339L51.6844 61.8388ZM51.0836 65.4576L50.5266 68.8133L44.1137 67.9085L44.6708 64.5527L51.0836 65.4576ZM51.3686 65.4975L57.7815 66.4023L57.2244 69.7581L50.8116 68.8533L51.3686 65.4975ZM58.0668 66.4426L64.4796 67.3475L63.9226 70.7032L57.5097 69.7984L58.0668 66.4426ZM63.8789 70.9659L63.3219 74.3217L56.909 73.4168L57.4661 70.0611L63.8789 70.9659ZM64.1643 71.0062L70.5771 71.911L70.0201 75.2668L63.6072 74.3619L64.1643 71.0062ZM70.8624 71.9513L77.2753 72.8562L76.7182 76.2119L70.3054 75.3071L70.8624 71.9513ZM77.5606 72.8964L83.9735 73.8013L83.4164 77.157L77.0036 76.2522L77.5606 72.8964ZM84.2588 73.8415L90.6716 74.7464L90.1146 78.1022L83.7017 77.1973L84.2588 73.8415ZM90.9566 74.7863L97.3695 75.6912L96.8124 79.047L90.3996 78.1421L90.9566 74.7863ZM97.6548 75.7314L104.068 76.6363L103.511 79.9921L97.0977 79.0872L97.6548 75.7314ZM104.353 76.6766L110.766 77.5814L110.209 80.9372L103.796 80.0323L104.353 76.6766ZM111.051 77.6217L117.464 78.5265L116.907 81.8823L110.494 80.9775L111.051 77.6217ZM117.749 78.5665L124.162 79.4713L123.605 82.8271L117.192 81.9222L117.749 78.5665ZM117.793 78.3035L118.35 74.9477L124.763 75.8526L124.206 79.2083L117.793 78.3035ZM125.048 75.8928L131.461 76.7977L130.904 80.1534L124.491 79.2486L125.048 75.8928ZM131.746 76.8379L138.159 77.7428L137.602 81.0986L131.189 80.1937L131.746 76.8379ZM131.79 76.5749L132.347 73.2192L138.76 74.124L138.203 77.4798L131.79 76.5749ZM132.391 72.9565L132.948 69.6007L139.361 70.5056L138.804 73.8613L132.391 72.9565ZM132.992 69.338L133.549 65.9823L139.962 66.8871L139.405 70.2429L132.992 69.338ZM133.593 65.7192L134.15 62.3638L140.563 63.2687L140.005 66.6241L133.593 65.7192ZM134.194 62.1008L134.751 58.745L141.164 59.6499L140.607 63.0057L134.194 62.1008ZM133.908 62.0605L127.495 61.1557L128.052 57.7999L134.465 58.7048L133.908 62.0605ZM128.096 57.5372L128.653 54.1815L135.066 55.0863L134.509 58.4421L128.096 57.5372ZM127.811 57.497L121.398 56.5921L121.955 53.2363L128.368 54.1412L127.811 57.497ZM121.113 56.5518L114.7 55.647L115.257 52.2912L121.67 53.1961L121.113 56.5518ZM114.415 55.6067L108.002 54.7019L108.559 51.3461L114.972 52.251L114.415 55.6067ZM107.717 54.6619L101.304 53.7571L101.861 50.4013L108.274 51.3062L107.717 54.6619ZM101.019 53.7168L94.6057 52.812L95.1628 49.4562L101.576 50.361L101.019 53.7168ZM94.3204 52.7717L87.9075 51.8668L88.4646 48.5111L94.8774 49.4159L94.3204 52.7717ZM87.6222 51.8269L81.2093 50.922L81.7664 47.5663L88.1793 48.4711L87.6222 51.8269ZM80.924 50.8818L74.5112 49.9769L75.0682 46.6212L81.4811 47.526L80.924 50.8818ZM74.2258 49.9367L67.813 49.0318L68.37 45.676L74.7829 46.5809L74.2258 49.9367ZM67.5277 48.9915L61.1148 48.0867L61.6719 44.7309L68.0847 45.6358L67.5277 48.9915ZM60.8295 48.0467L54.4166 47.1419L54.9737 43.7861L61.3865 44.691L60.8295 48.0467ZM60.7858 48.3094L60.2288 51.6652L53.8159 50.7603L54.373 47.4046L60.7858 48.3094ZM53.5306 50.7201L47.1177 49.8152L47.6748 46.4595L54.0876 47.3643L53.5306 50.7201ZM44.0697 68.1711L50.4826 69.076L49.9255 72.4318L43.5127 71.5269L44.0697 68.1711ZM50.7679 69.1163L57.1807 70.0211L56.6237 73.3769L50.2108 72.472L50.7679 69.1163ZM56.58 73.6396L56.023 76.995L49.6101 76.0902L50.1672 72.7347L56.58 73.6396ZM56.8653 73.6798L63.2782 74.5847L62.7212 77.9401L56.3083 77.0353L56.8653 73.6798ZM63.5632 74.625L69.976 75.5298L69.419 78.8853L63.0061 77.9804L63.5632 74.625ZM70.2614 75.5701L76.6742 76.4749L76.1172 79.8304L69.7043 78.9255L70.2614 75.5701ZM76.9595 76.5149L83.3724 77.4197L82.8153 80.7752L76.4025 79.8703L76.9595 76.5149ZM83.6577 77.46L90.0706 78.3648L89.5135 81.7203L83.1007 80.8154L83.6577 77.46ZM90.3559 78.4051L96.7687 79.31L96.2117 82.6654L89.7988 81.7605L90.3559 78.4051ZM97.0541 79.3499L103.467 80.2548L102.91 83.6102L96.4967 82.7053L97.0541 79.3499ZM103.752 80.295L110.165 81.1999L109.608 84.5553L103.195 83.6505L103.752 80.295ZM110.45 81.2401L116.863 82.145L116.306 85.5004L109.893 84.5956L110.45 81.2401ZM117.149 82.1853L123.561 83.0901L123.004 86.4455L116.592 85.5407L117.149 82.1853ZM123.846 83.13L130.26 84.0349L129.703 87.3903L123.29 86.4855L123.846 83.13ZM123.89 82.8674L124.447 79.5116L130.86 80.4165L130.303 83.7722L123.89 82.8674ZM131.146 80.4567L137.559 81.3616L137.001 84.7173L130.589 83.8125L131.146 80.4567ZM141.665 56.6281L141.207 59.3872L134.794 58.4823L135.351 55.1266L141.117 55.94C141.474 55.9902 141.72 56.2991 141.665 56.6281ZM48.9231 42.9324L54.6887 43.7459L54.1317 47.1016L47.7188 46.1968L48.177 43.4376C48.2315 43.109 48.5662 42.8823 48.9231 42.9324ZM43.0107 74.5487L43.469 71.7899L49.8818 72.6948L49.3248 76.0502L43.5592 75.2368C43.2023 75.1863 42.9563 74.8777 43.0107 74.5487ZM135.753 88.2441L129.988 87.4306L130.545 84.0752L136.957 84.98L136.499 87.7388C136.445 88.0678 136.11 88.2945 135.753 88.2441Z" fill="white"/>
</g>
<g id="Group_42">
<path id="Vector_66" opacity="0.5" d="M138.115 78.0054L136.499 87.7344C136.447 88.0499 136.128 88.2661 135.783 88.2172L43.5364 75.2027C43.1941 75.1545 42.9596 74.8602 43.0123 74.5447L43.2285 73.2432C43.2285 73.2432 47.5642 70.0227 50.2772 70.4055C53.4834 70.8579 54.0519 72.534 56.9045 72.9363C59.7541 73.3382 62.906 67.2276 65.4904 67.5922C66.888 67.7896 67.246 68.7819 67.9326 69.6914C68.4417 70.3715 69.1395 71.0028 70.5818 71.2305C70.6155 71.2381 70.6527 71.243 70.6871 71.248C74.1958 71.743 78.9444 54.5737 83.7709 55.2549C85.9046 55.5558 86.767 59.3455 87.4068 63.5289C88.2191 68.8159 88.6787 74.7338 90.9152 75.0492C94.9172 75.6139 96.2766 68.1308 99.9991 68.6558C102.338 68.9858 103.19 72.9811 105.158 76.1435C106.321 78.0166 107.88 79.598 110.374 79.9497C112.639 80.2692 114.153 79.7831 115.33 79.0211C117.638 77.5328 118.67 74.9928 121.557 75.4C123.266 75.6413 123.89 76.8567 124.526 78.0014C125.081 79.0026 125.648 79.9491 126.966 80.1352C128.515 80.3537 129.835 78.309 131.235 76.4937C132.384 75.0007 133.584 73.6632 135.011 73.8645C136.469 74.0701 137.328 75.6822 137.761 76.8332C138.007 77.4952 138.115 78.0054 138.115 78.0054Z" fill="#33B6D8"/>
<path id="Vector_67" opacity="0.5" d="M140.335 64.6374L136.499 87.7348C136.447 88.0503 136.128 88.2664 135.783 88.2176L43.5364 75.2027C43.1941 75.1545 42.9596 74.8602 43.0123 74.5447L43.2285 73.2432C47.0595 73.7837 49.104 71.1414 51.6741 71.5041C54.2442 71.8667 55.5752 73.521 57.9827 73.8609C60.3903 74.2005 64.0985 69.0106 66.7316 69.3822C67.1851 69.4462 67.5786 69.5554 67.9326 69.6917C68.9451 70.0821 69.6435 70.7107 70.5818 71.2308C71.2184 71.5816 71.9652 71.8836 72.9923 72.0284C76.0761 72.4634 82.2444 62.1792 85.8187 62.6835C86.4434 62.7716 86.9589 63.0785 87.4064 63.5293C89.5179 65.6518 90.0617 70.9573 93.0428 71.3777C96.6543 71.8872 98.5871 66.4709 102.09 66.9652C105.593 67.4596 106.627 73.0254 110.69 73.5986C114.752 74.1718 119.147 63.9507 123.36 64.545C127.57 65.139 128.778 70.389 132.44 70.9054C136.451 71.4711 140.335 64.6374 140.335 64.6374Z" fill="#33B6D8"/>
<path id="Vector_68" d="M138.552 75.3759L136.5 87.7344C136.447 88.0499 136.128 88.266 135.783 88.2172L43.5364 75.2027C43.1941 75.1545 42.9596 74.8601 43.0123 74.5446L43.1179 73.9084C43.2514 73.7899 45.422 71.9004 47.6297 72.2119C49.9091 72.5336 49.9149 74.4153 53.0953 74.8641C56.2758 75.3129 57.2009 72.9946 61.7138 73.6312C66.2296 74.2684 66.2082 77.1744 70.8722 77.8324C75.5362 78.4905 76.4999 75.007 79.8118 75.4743C83.1208 75.9412 82.9038 77.7216 84.7837 77.9869C86.6636 78.2522 87.7637 75.5307 90.0799 75.8574C92.3962 76.1841 94.1669 80.6589 96.7771 81.0272C98.6114 81.2859 101.852 77.9407 105.158 76.1438C106.557 75.3858 107.968 74.904 109.288 75.0905C112.013 75.4749 113.602 77.4348 115.33 79.0214C116.417 80.0197 117.56 80.8701 119.072 81.0833C121.231 81.3879 122.87 79.5874 124.526 78.0017C125.873 76.7118 127.229 75.5627 128.88 75.7957C129.933 75.9442 130.667 76.1986 131.234 76.4936C132.659 77.2328 133.042 78.2288 134.757 78.4707C136.824 78.7624 138.552 75.3759 138.552 75.3759Z" fill="#33B6D8"/>
</g>
<path id="Vector_69" d="M54.4331 41.6648L49.4802 40.9659C48.9983 40.8979 48.6675 40.4828 48.7412 40.0383C48.815 39.5941 49.2654 39.2892 49.7476 39.3571L54.7005 40.0561C55.1824 40.1241 55.5132 40.5392 55.4394 40.9837C55.3653 41.4279 54.915 41.7328 54.4331 41.6648Z" fill="#33B6D8"/>
<g id="Group_43">
<path id="Vector_70" d="M57.1683 40.7438C57.1948 40.7438 57.2216 40.7458 57.2488 40.7494L62.2018 41.4484C62.3403 41.4678 62.4624 41.5361 62.5454 41.6401C62.6285 41.7444 62.6625 41.8721 62.6414 41.9998C62.6024 42.2338 62.38 42.4103 62.1237 42.4103C62.0972 42.4103 62.0704 42.4083 62.0432 42.4047L57.0902 41.7061C56.9517 41.6866 56.8296 41.6183 56.7466 41.5144C56.6635 41.4101 56.6295 41.2827 56.651 41.1547C56.6896 40.9204 56.912 40.7438 57.1683 40.7438ZM57.1683 40.4138C56.7398 40.4138 56.3635 40.7019 56.2969 41.1045C56.2232 41.5487 56.5539 41.9638 57.0358 42.0321L61.9887 42.7311C62.0339 42.7373 62.079 42.7406 62.1234 42.7406C62.5519 42.7406 62.9281 42.4526 62.9947 42.05C63.0685 41.6058 62.7377 41.1906 62.2558 41.1223L57.3029 40.4234C57.2578 40.4171 57.2127 40.4138 57.1683 40.4138Z" fill="#33B6D8"/>
</g>
<g id="Group_44">
<path id="Vector_71" d="M64.7237 41.81C64.7502 41.81 64.777 41.812 64.8043 41.8156L69.7572 42.5145C69.8957 42.534 70.0178 42.6023 70.1009 42.7063C70.1839 42.8102 70.2179 42.9379 70.1968 43.0656C70.1578 43.2996 69.9355 43.4762 69.6791 43.4762C69.6526 43.4762 69.6258 43.4742 69.5986 43.4705L64.6457 42.7716C64.5071 42.7521 64.385 42.6838 64.302 42.5799C64.2189 42.4756 64.1849 42.3482 64.206 42.2205C64.2451 41.9865 64.4674 41.81 64.7237 41.81ZM64.7237 41.48C64.2952 41.48 63.9189 41.7681 63.8523 42.1707C63.7786 42.6149 64.1094 43.03 64.5912 43.098L69.5442 43.7969C69.5893 43.8032 69.6344 43.8065 69.6788 43.8065C70.1073 43.8065 70.4836 43.5184 70.5501 43.1158C70.6239 42.6716 70.2931 42.2561 69.8112 42.1882L64.8583 41.4892C64.8132 41.483 64.7681 41.48 64.7237 41.48Z" fill="#33B6D8"/>
</g>
<path id="Vector_72" d="M141.862 53.2653L141.921 52.9089L141.636 52.8449C141.628 52.7862 141.613 52.7291 141.591 52.675L141.811 52.4964L141.58 52.2057L141.329 52.3466C141.279 52.311 141.225 52.2806 141.166 52.2562L141.186 51.9856L140.799 51.9312L140.73 52.1945C140.666 52.2017 140.604 52.2156 140.545 52.2361L140.352 52.0325L140.036 52.246L140.189 52.4773C140.15 52.5232 140.117 52.5733 140.091 52.6271L139.797 52.6093L139.738 52.9657L140.024 53.0297C140.032 53.0885 140.047 53.1456 140.069 53.1997L139.848 53.3782L140.08 53.6689L140.331 53.528C140.381 53.5637 140.435 53.594 140.493 53.6184L140.474 53.889L140.861 53.9435L140.93 53.6802C140.994 53.6729 141.056 53.659 141.115 53.6386L141.308 53.8422L141.624 53.6287L141.471 53.3973C141.51 53.3515 141.543 53.3013 141.569 53.2475L141.862 53.2653ZM140.761 53.3515C140.513 53.3165 140.343 53.1027 140.381 52.874C140.418 52.6453 140.65 52.4882 140.899 52.5232C141.147 52.5581 141.317 52.772 141.279 53.0007C141.242 53.2294 141.01 53.3865 140.761 53.3515Z" fill="#33B6D8"/>
</g>
<g id="Group_45">
<g id="Group_46">
<path id="Vector_73" opacity="0.2" d="M86.1757 92.5354L85.1226 92.3868L83.9633 99.3686L85.0164 99.5172L86.1757 92.5354Z" fill="#33B6D8"/>
<path id="Vector_74" d="M86.0012 93.5874L84.948 93.4388L84.4023 96.7254L85.4554 96.874L86.0012 93.5874Z" fill="#33B6D8"/>
</g>
<g id="Group_47">
<path id="Vector_75" opacity="0.2" d="M83.5129 93.9627L82.4597 93.8141L81.3004 100.796L82.3536 100.944L83.5129 93.9627Z" fill="#33B6D8"/>
<path id="Vector_76" d="M82.1553 95.6535L81.6096 98.9401L82.6628 99.0887L83.2085 95.8021L82.1553 95.6535Z" fill="#33B6D8"/>
</g>
<g id="Group_48">
<path id="Vector_77" opacity="0.2" d="M81.3637 92.2892L80.3105 92.1406L79.1512 99.1224L80.2044 99.271L81.3637 92.2892Z" fill="#33B6D8"/>
<path id="Vector_78" d="M80.9277 94.9182L79.8745 94.7697L79.3288 98.0562L80.3819 98.2048L80.9277 94.9182Z" fill="#33B6D8"/>
</g>
<g id="Group_49">
<path id="Vector_79" opacity="0.2" d="M88.3183 94.2492L87.2651 94.1006L86.1058 101.082L87.159 101.231L88.3183 94.2492Z" fill="#33B6D8"/>
<path id="Vector_80" d="M88.1469 95.2993L87.0938 95.1508L86.548 98.4373L87.6012 98.5859L88.1469 95.2993Z" fill="#33B6D8"/>
</g>
<g id="Group_50">
<path id="Vector_81" opacity="0.2" d="M91.0314 92.5186L89.9783 92.37L88.819 99.3518L89.8721 99.5003L91.0314 92.5186Z" fill="#33B6D8"/>
<path id="Vector_82" d="M90.9008 93.3069L89.8477 93.1583L89.3019 96.4448L90.3551 96.5934L90.9008 93.3069Z" fill="#33B6D8"/>
</g>
<g id="Group_51">
<path id="Vector_83" opacity="0.2" d="M93.103 94.6557L92.0498 94.5071L90.8905 101.489L91.9437 101.637L93.103 94.6557Z" fill="#33B6D8"/>
<path id="Vector_84" d="M93.0598 94.9182L92.0066 94.7697L91.4609 98.0562L92.514 98.2048L93.0598 94.9182Z" fill="#33B6D8"/>
</g>
<g id="Group_52">
<path id="Vector_85" opacity="0.2" d="M96.08 91.3399L95.0269 91.1913L93.8676 98.1731L94.9207 98.3216L96.08 91.3399Z" fill="#33B6D8"/>
<path id="Vector_86" d="M96.0368 91.6024L94.9836 91.4539L94.4379 94.7404L95.4911 94.889L96.0368 91.6024Z" fill="#33B6D8"/>
</g>
<g id="Group_53">
<path id="Vector_87" opacity="0.2" d="M97.7214 96.0707L96.6682 95.9221L95.5089 102.904L96.5621 103.052L97.7214 96.0707Z" fill="#33B6D8"/>
<path id="Vector_88" d="M97.5458 97.1227L96.4927 96.9741L95.947 100.261L97.0001 100.409L97.5458 97.1227Z" fill="#33B6D8"/>
</g>
<g id="Group_54">
<path id="Vector_89" opacity="0.2" d="M100.025 96.8127L98.9717 96.6641L97.8124 103.646L98.8655 103.794L100.025 96.8127Z" fill="#33B6D8"/>
<path id="Vector_90" d="M99.5873 99.4424L98.5342 99.2938L97.9885 102.58L99.0416 102.729L99.5873 99.4424Z" fill="#33B6D8"/>
</g>
<g id="Group_55">
<path id="Vector_91" opacity="0.2" d="M103.126 92.7628L102.073 92.6143L100.914 99.596L101.967 99.7446L103.126 92.7628Z" fill="#33B6D8"/>
<path id="Vector_92" d="M102.643 95.6579L101.59 95.5093L101.044 98.7958L102.097 98.9444L102.643 95.6579Z" fill="#33B6D8"/>
</g>
<g id="Group_56">
<path id="Vector_93" opacity="0.2" d="M104.985 96.1685L103.931 96.0199L102.772 103.002L103.825 103.15L104.985 96.1685Z" fill="#33B6D8"/>
<path id="Vector_94" d="M104.766 97.4835L103.712 97.335L103.167 100.621L104.22 100.77L104.766 97.4835Z" fill="#33B6D8"/>
</g>
<g id="Group_57">
<path id="Vector_95" opacity="0.2" d="M107.657 94.6819L106.604 94.5333L105.444 101.515L106.498 101.664L107.657 94.6819Z" fill="#33B6D8"/>
<path id="Vector_96" d="M107.482 95.7334L106.429 95.5848L105.883 98.8714L106.937 99.0199L107.482 95.7334Z" fill="#33B6D8"/>
</g>
<g id="Group_58">
<path id="Vector_97" opacity="0.2" d="M110.548 91.8815L109.495 91.7329L108.336 98.7147L109.389 98.8633L110.548 91.8815Z" fill="#33B6D8"/>
<path id="Vector_98" d="M110.549 91.881L109.496 91.7324L108.95 95.0189L110.003 95.1675L110.549 91.881Z" fill="#33B6D8"/>
</g>
<g id="Group_59">
<path id="Vector_99" opacity="0.2" d="M112.189 96.635L111.136 96.4865L109.977 103.468L111.03 103.617L112.189 96.635Z" fill="#33B6D8"/>
<path id="Vector_100" d="M112.055 97.4264L111.002 97.2778L110.456 100.564L111.509 100.713L112.055 97.4264Z" fill="#33B6D8"/>
</g>
<g id="Group_60">
<path id="Vector_101" opacity="0.2" d="M114.046 100.041L112.993 99.892L111.834 106.874L112.887 107.022L114.046 100.041Z" fill="#33B6D8"/>
<path id="Vector_102" d="M113.916 100.829L112.863 100.681L112.317 103.967L113.37 104.116L113.916 100.829Z" fill="#33B6D8"/>
</g>
<g id="Group_61">
<path id="Vector_103" opacity="0.2" d="M117.032 96.6794L115.979 96.5308L114.819 103.513L115.873 103.661L117.032 96.6794Z" fill="#33B6D8"/>
<path id="Vector_104" d="M116.599 99.3063L115.545 99.1577L115 102.444L116.053 102.593L116.599 99.3063Z" fill="#33B6D8"/>
</g>
<g id="Group_62">
<path id="Vector_105" opacity="0.2" d="M120.058 93.0674L119.004 92.9188L117.845 99.9006L118.898 100.049L120.058 93.0674Z" fill="#33B6D8"/>
<path id="Vector_106" d="M119.533 96.2234L118.48 96.0748L117.934 99.3613L118.987 99.5099L119.533 96.2234Z" fill="#33B6D8"/>
</g>
<g id="Group_63">
<path id="Vector_107" opacity="0.2" d="M121.773 97.3487L120.719 97.2001L119.56 104.182L120.613 104.33L121.773 97.3487Z" fill="#33B6D8"/>
<path id="Vector_108" d="M121.603 98.397L120.55 98.2484L120.004 101.535L121.057 101.684L121.603 98.397Z" fill="#33B6D8"/>
</g>
<g id="Group_64">
<path id="Vector_109" opacity="0.2" d="M123.951 98.845L122.897 98.6964L121.738 105.678L122.791 105.827L123.951 98.845Z" fill="#33B6D8"/>
<path id="Vector_110" d="M123.471 101.737L122.418 101.588L121.872 104.875L122.925 105.023L123.471 101.737Z" fill="#33B6D8"/>
</g>
<g id="Group_65">
<path id="Vector_111" opacity="0.2" d="M126.684 97.0015L125.63 96.8529L124.471 103.835L125.524 103.983L126.684 97.0015Z" fill="#33B6D8"/>
<path id="Vector_112" d="M126.683 97.002L125.63 96.8534L125.084 100.14L126.137 100.288L126.683 97.002Z" fill="#33B6D8"/>
</g>
<g id="Group_66">
<path id="Vector_113" opacity="0.2" d="M128.692 99.5139L127.639 99.3654L126.48 106.347L127.533 106.496L128.692 99.5139Z" fill="#33B6D8"/>
<path id="Vector_114" d="M128.605 100.04L127.552 99.8912L127.006 103.178L128.059 103.326L128.605 100.04Z" fill="#33B6D8"/>
</g>
<g id="Group_67">
<path id="Vector_115" opacity="0.2" d="M131.22 98.9063L130.167 98.7577L129.007 105.739L130.061 105.888L131.22 98.9063Z" fill="#33B6D8"/>
<path id="Vector_116" d="M131.176 99.1697L130.123 99.0211L129.577 102.308L130.63 102.456L131.176 99.1697Z" fill="#33B6D8"/>
</g>
<g id="Group_68">
<path id="Vector_117" opacity="0.2" d="M133.442 100.138L132.388 99.9895L131.229 106.971L132.282 107.12L133.442 100.138Z" fill="#33B6D8"/>
<path id="Vector_118" d="M132.879 103.552L131.826 103.404L131.28 106.69L132.333 106.839L132.879 103.552Z" fill="#33B6D8"/>
</g>
</g>
</g>
<path id="Vector_119" d="M95.1561 109.833L75.2944 107.03L75.2003 107.597L95.062 110.399L95.1561 109.833Z" fill="#999999" stroke="#263238" stroke-miterlimit="10" stroke-linecap="round" stroke-linejoin="round"/>
</g>
</g>
</g>
<g id="Right_hand_1_">
<g id="Group_69">
<path id="Vector_120" opacity="0.2" d="M107.779 69.9204C107.779 69.9204 105.087 71.2955 106.8 75.0265C108.513 78.7575 118.945 84.8843 118.733 88.0001C118.733 88.0001 108.027 81.8486 105.052 85.4C105.052 85.4 113.14 92.6297 113.979 98.0704C114.818 103.511 117.571 105.92 123.89 109.022C130.209 112.124 143.98 128.499 143.98 128.499L141.922 101.01L121.879 80.1534L111.968 74.948L107.779 69.9204Z" fill="black" fill-opacity="0.7"/>
<g id="Group_70">
<path id="Vector_121" d="M162.178 118.932C162.178 118.932 144.528 129.617 144.525 129.617C144.514 129.621 144.507 129.624 144.496 129.624C144.464 129.624 144.435 129.604 144.421 129.575C144.342 129.383 136.534 110.174 134.665 108.676C133.273 107.56 132.664 106.105 132.438 105.395C132.438 105.392 132.435 105.392 132.435 105.389C132.431 105.382 132.431 105.372 132.428 105.362C132.36 105.151 132.327 105.013 132.32 104.976C132.252 104.825 130.971 102.178 127.713 100.205C126.485 99.4587 125.057 98.9241 123.546 98.3565C121.326 97.5282 119.042 96.6735 117.428 95.0928C117.155 94.8255 116.901 94.5384 116.672 94.2249C114.105 90.7599 110.142 86.9352 108.821 86.1498C107.45 85.3314 105.08 85.47 105.059 85.4733C105.016 85.4766 104.98 85.4502 104.973 85.4139C104.869 84.8562 105.073 84.2589 105.553 83.7342C106.211 83.0115 107.232 82.5792 108.284 82.5792C110.325 82.5792 113.135 83.5791 114.553 84.8133C115.938 86.0178 119.25 86.9715 119.626 87.0771C120.159 86.7867 121.401 87.4104 121.877 87.6744C121.33 85.8759 121.552 85.1829 121.638 85.008C120.463 83.6055 114.349 79.4541 111.102 77.3718H111.098C110.203 76.7943 109.53 76.3785 109.236 76.2201C107.722 75.3984 106.469 72.8277 106.713 71.0325C106.791 70.4484 107.035 70.0293 107.432 69.7851C107.776 69.5739 108.166 69.5343 108.452 69.5442C108.696 69.5508 108.868 69.5904 108.886 69.5937C108.9 69.6003 108.914 69.6069 108.925 69.6168C108.954 69.6531 111.993 72.9762 113.046 73.4976C113.561 73.7517 116.303 75.0288 118.91 76.2168C119.307 76.3983 119.701 76.5798 120.084 76.7514C120.091 76.2399 120.116 74.2335 120.263 73.6197C120.363 73.2105 121.072 72.6264 121.877 72.2865C122.253 72.1281 122.962 71.9004 123.463 72.1512C123.66 72.2535 124.126 72.5175 124.77 72.8871C125.085 73.0653 125.45 73.2765 125.851 73.5009C125.987 73.3194 126.413 72.7848 126.682 72.6396C126.95 72.4944 128.436 72.2403 128.966 72.4119C129.428 72.567 130.91 73.4349 132.478 74.3523C132.7 74.481 132.925 74.613 133.154 74.745C133.237 74.6031 133.43 74.3061 133.613 74.2401C134.311 73.9794 135.442 73.9266 136.029 74.1213C136.559 74.2995 138.378 75.537 140.139 76.7349C141.106 77.3949 142.033 78.0252 142.641 78.4047C142.663 78.4113 142.681 78.4212 142.692 78.4377C142.867 78.5466 143.014 78.6324 143.125 78.6918C144.421 79.3749 147.607 94.7793 147.639 94.9344C147.847 95.9673 148.606 97.0332 149.408 98.1618C150.192 99.264 151.08 100.515 151.613 101.954C152.633 104.702 154.957 108.725 158.361 113.642C158.669 114.088 158.988 114.54 159.314 114.998C160.234 116.299 161.215 117.638 162.178 118.932Z" fill="white"/>
<path id="Vector_122" opacity="0.4" d="M122.844 89.4366C122.16 89.9349 117.198 89.463 116.59 91.0008C116.232 91.9083 116.497 93.2811 117.428 95.0928C117.155 94.8255 116.901 94.5384 116.672 94.2249C114.105 90.7599 110.142 86.9352 108.821 86.1498C107.45 85.3314 105.08 85.47 105.059 85.4733C105.016 85.4766 104.98 85.4502 104.973 85.4139C104.869 84.8562 105.073 84.2589 105.553 83.7342C106.211 83.0115 107.232 82.5792 108.284 82.5792C110.325 82.5792 113.135 83.5791 114.553 84.8133C115.938 86.0178 119.25 86.9715 119.626 87.0771C120.159 86.7867 121.401 87.4104 121.877 87.6744C121.33 85.8759 121.552 85.1829 121.638 85.008C120.463 83.6055 114.349 79.4541 111.102 77.3718H111.098C110.203 76.7943 109.53 76.3785 109.236 76.2201C107.722 75.3984 106.469 72.8277 106.713 71.0325C106.791 70.4484 107.035 70.0293 107.432 69.7851C107.776 69.5739 108.166 69.5343 108.452 69.5442C108.227 69.6234 108.001 69.7455 107.779 69.9204C106.784 70.7025 109.158 74.8308 110.493 75.9726C111.889 77.1639 118.169 80.1207 120.424 81.8829C121.663 82.8498 123.288 84.315 123.288 84.315C122.296 85.8693 123.524 88.9416 122.844 89.4366Z" fill="#33B6D8"/>
<path id="Vector_123" d="M145.899 64.1932C145.896 64.1652 145.896 64.1589 145.903 64.1714C145.906 64.1808 145.906 64.187 145.899 64.1932Z" fill="#33B6D8"/>
<path id="Vector_124" opacity="0.4" d="M158.361 113.642C155.701 111.309 151.742 107.676 151.001 106.082C149.87 103.64 149.114 101.386 147.707 99.7425C146.304 98.1024 143.447 80.586 142.627 80.5365C141.829 80.4837 143.658 87.4599 143.755 87.8229C143.676 87.6018 142.652 84.6285 141.671 81.2394C140.655 77.7183 139.627 77.5269 139.627 77.5269C138.263 77.7777 138.256 78.672 137.558 78.6588C136.863 78.6456 134.465 77.0781 134.465 77.0781C132.141 77.3883 123.424 72.2139 123.424 72.2139C121.441 72.4614 120.975 74.0586 122.669 75.5568C124.366 77.0583 126.893 78.8799 126.893 78.8799C125.261 79.6125 119.268 76.5138 119.268 76.5138L118.91 76.2168C119.307 76.3983 119.701 76.5798 120.084 76.7514C120.091 76.2399 120.116 74.2335 120.263 73.6197C120.363 73.2105 121.072 72.6264 121.877 72.2865C122.253 72.1281 122.962 71.9004 123.463 72.1512C123.66 72.2535 124.126 72.5175 124.77 72.8871C125.085 73.0653 125.45 73.2765 125.851 73.5009C125.987 73.3194 126.413 72.7848 126.682 72.6396C126.95 72.4944 128.436 72.2403 128.966 72.4119C129.428 72.567 130.91 73.4349 132.478 74.3523C132.7 74.481 132.925 74.613 133.154 74.745C133.237 74.6031 133.43 74.3061 133.613 74.2401C134.311 73.9794 135.442 73.9266 136.029 74.1213C136.559 74.2995 138.378 75.537 140.139 76.7349C141.106 77.3949 142.033 78.0252 142.641 78.4047C142.663 78.4113 142.681 78.4212 142.692 78.4377C142.867 78.5466 143.014 78.6324 143.125 78.6918C144.421 79.3749 147.607 94.7793 147.639 94.9344C147.847 95.9673 148.606 97.0331 149.408 98.1618C150.192 99.264 151.08 100.515 151.613 101.953C152.633 104.702 154.957 108.725 158.361 113.642Z" fill="#33B6D8"/>
<g id="Group_71">
<path id="Vector_125" d="M144.496 129.551C144.496 129.551 136.623 110.149 134.718 108.621C132.812 107.094 132.398 104.955 132.398 104.955C132.398 104.955 131.155 102.205 127.757 100.143C124.36 98.0803 119.222 97.5457 116.736 94.1847C114.25 90.8236 110.272 86.928 108.864 86.0878C107.455 85.2476 105.052 85.4004 105.052 85.4004C104.803 84.1018 106.378 82.6505 108.283 82.6505C110.189 82.6505 113.007 83.5672 114.498 84.8658C115.99 86.1643 119.636 87.1573 119.636 87.1573C120.216 86.7755 122.008 87.8351 122.008 87.8351C121.294 85.6007 121.728 84.9994 121.728 84.9994C120.32 83.2425 110.687 76.9217 109.278 76.1577C107.869 75.3938 106.544 72.8733 106.792 71.0401C107.04 69.207 108.864 69.6653 108.864 69.6653C108.864 69.6653 111.93 73.0264 113.007 73.561C114.084 74.0956 122.536 77.9912 123.779 78.4496C125.022 78.908 125.934 78.2968 125.934 78.2968" stroke="#263238" stroke-miterlimit="10" stroke-linecap="round" stroke-linejoin="round"/>
<path id="Vector_126" d="M120.163 76.8666C120.163 76.8666 120.175 74.3243 120.341 73.6369C120.506 72.9495 122.513 71.7572 123.425 72.2156C124.336 72.674 131.051 76.7425 132.8 76.9217" stroke="#263238" stroke-miterlimit="10" stroke-linecap="round" stroke-linejoin="round"/>
<path id="Vector_127" d="M125.868 73.6038C125.868 73.6038 126.413 72.867 126.721 72.7013C126.97 72.5676 128.441 72.3168 128.938 72.4818C129.932 72.8112 135.795 76.5399 136.79 76.7689" stroke="#263238" stroke-miterlimit="10" stroke-linecap="round" stroke-linejoin="round"/>
<path id="Vector_128" d="M133.183 74.8497C133.183 74.8497 133.437 74.3814 133.641 74.3058C134.351 74.0425 135.449 74.0052 136.002 74.1906C136.913 74.4962 141.927 78.1437 143.087 78.7545C144.247 79.3657 147.147 92.8858 147.562 94.9483C147.976 97.0108 150.462 99.073 151.539 101.976C152.617 104.878 155.186 109.309 159.246 115.037C159.96 116.044 160.707 117.072 161.453 118.083" stroke="#263238" stroke-miterlimit="10" stroke-linecap="round" stroke-linejoin="round"/>
<path id="Vector_129" d="M125.271 82.2492C125.271 82.2492 125.644 80.7025 126.638 80.0148C127.633 79.3274 129 80.4158 129.994 80.5303" stroke="#263238" stroke-miterlimit="10" stroke-linecap="round" stroke-linejoin="round"/>
<path id="Vector_130" d="M132.045 79.7891C132.045 79.7891 132.605 78.0101 133.599 77.6091C134.594 77.2082 136.127 78.411 136.789 78.4684" stroke="#263238" stroke-miterlimit="10" stroke-linecap="round" stroke-linejoin="round"/>
<path id="Vector_131" d="M138.571 78.182C138.571 78.182 139.317 77.5316 139.627 77.5276C139.938 77.5233 141.244 78.7836 141.523 78.8697C141.803 78.9555 142.146 78.4843 142.627 78.4763" stroke="#263238" stroke-miterlimit="10" stroke-linecap="round" stroke-linejoin="round"/>
<path id="Vector_132" d="M136.306 76.5683C136.306 76.5683 137.204 76.4917 137.856 76.9214" stroke="#263238" stroke-miterlimit="10" stroke-linecap="round" stroke-linejoin="round"/>
<path id="Vector_133" d="M121.729 84.9991C121.729 84.9991 121.231 83.8246 121.48 83.223" stroke="#263238" stroke-miterlimit="10" stroke-linecap="round" stroke-linejoin="round"/>
<path id="Vector_134" d="M122.692 76.3772C122.692 76.3772 123.282 77.0157 123.313 77.5272C123.345 78.0387 124.761 78.6582 124.761 78.6582" stroke="#263238" stroke-miterlimit="10" stroke-linecap="round" stroke-linejoin="round"/>
<path id="Vector_135" d="M132.168 76.7686C132.168 76.7686 132.978 76.5013 133.412 76.7686" stroke="#263238" stroke-miterlimit="10" stroke-linecap="round" stroke-linejoin="round"/>
<path id="Vector_136" d="M121.729 86.5459C121.729 86.5459 121.563 85.3618 122.692 84.5599" stroke="#263238" stroke-miterlimit="10" stroke-linecap="round" stroke-linejoin="round"/>
<path id="Vector_137" d="M122.008 87.8351C122.008 87.8351 121.086 88.5703 121.086 89.0287" stroke="#263238" stroke-miterlimit="10" stroke-linecap="round" stroke-linejoin="round"/>
<path id="Vector_138" d="M117.756 86.5458C118.853 86.9213 119.761 88.4934 120.424 88.7611" stroke="#263238" stroke-miterlimit="10" stroke-linecap="round" stroke-linejoin="round"/>
<path id="Vector_139" d="M131.03 81.5427C131.693 82.4212 133.184 88.7994 134.676 90.8236" stroke="#263238" stroke-miterlimit="10" stroke-linecap="round" stroke-linejoin="round"/>
<path id="Vector_140" d="M136.584 79.7395C136.708 79.8157 137.578 82.2983 137.578 82.2983" stroke="#263238" stroke-miterlimit="10" stroke-linecap="round" stroke-linejoin="round"/>
<path id="Vector_141" d="M147.708 95.4644C148.059 97.5453 148.888 99.1495 148.888 99.1495" stroke="#263238" stroke-miterlimit="10" stroke-linecap="round" stroke-linejoin="round"/>
<path id="Vector_142" d="M132.511 105.373C132.397 104.955 131.918 102.205 131.329 101.288" stroke="#263238" stroke-miterlimit="10" stroke-linecap="round" stroke-linejoin="round"/>
</g>
</g>
</g>
</g>
<g id="Left_hand">
<g id="Group_72">
<path id="Vector_143" opacity="0.2" d="M32.1816 148.265C32.1816 148.265 43.8295 133.828 52.6141 131.184C61.3987 128.541 61.8333 124.955 61.4746 118.262C61.1156 111.569 61.3833 104.825 58.9833 104.019C56.5836 103.214 61.877 94.477 59.3345 91.0127L42.7144 115.085L32.1816 148.265Z" fill="black" fill-opacity="0.7"/>
<g id="Group_73">
<path id="Vector_144" d="M29.356 152.288C29.3059 152.275 29.2486 152.255 29.1806 152.236C29.3202 152.308 29.4061 152.354 29.4312 152.364C29.4204 152.351 29.3954 152.328 29.356 152.288ZM57.6738 107.999C56.2239 107.382 53.3993 104.488 53.0449 104.125C54.842 101.346 56.6034 98.6667 57.2156 98.0232C58.4865 96.69 60.0366 92.8521 59.4065 90.9909C58.8301 89.2815 56.9435 89.5554 56.6857 89.6016C56.6678 89.6049 56.6571 89.6082 56.6571 89.6082C56.6356 89.6115 56.6213 89.6214 56.6105 89.6379C56.5712 89.7006 52.7298 95.6703 51.5377 97.0992C50.9685 97.779 49.6582 99.3267 48.33 100.878C48.262 100.868 48.1188 100.845 47.9326 100.822C47.3169 100.752 46.1856 100.666 45.4087 100.888C45.3837 100.894 45.355 100.904 45.3264 100.914C45.0507 101.01 44.6175 101.224 44.0984 101.515C44.0483 101.495 43.9481 101.455 43.8156 101.406C43.25 101.188 42.0793 100.769 41.5244 100.746C40.8478 100.713 38.4635 101.732 37.0387 102.561C36.8167 102.495 35.4671 102.122 34.0243 102.175C32.9324 102.217 30.7057 103.052 28.9157 103.722C28.1209 104.019 27.4335 104.277 27.0326 104.392C26.9109 104.428 26.7963 104.458 26.6853 104.491C25.6185 104.785 25.0314 104.95 24.2867 106.323C23.5134 107.748 22.6793 113.065 22.2783 115.619L22.2246 115.965C22.0707 116.942 22.0958 118.691 22.1208 120.542C22.1602 123.116 22.1996 125.776 21.7843 126.819C21.165 128.367 20.2485 129.594 19.579 130.489C19.4609 130.644 19.3535 130.789 19.2532 130.927C18.6232 131.789 18.3153 132.548 17.9251 133.505C17.6243 134.237 17.2484 135.043 16.8833 135.778C16.2102 137.141 15.5837 138.267 15.5837 138.267C15.5837 138.267 28.2498 151.156 29.356 152.288C29.467 152.325 29.5314 152.341 29.5386 152.341C29.5815 152.275 31.9229 148.586 34.4038 144.946C36.5411 141.804 38.7821 138.699 39.738 137.986C41.306 136.815 42.0936 135.201 42.4803 134.053C42.9958 132.525 46.2858 130.64 49.4684 128.819C52.9876 126.806 56.6213 124.723 56.7502 123.001C56.8182 122.11 57.0401 120.635 57.2979 118.922C57.996 114.282 58.8624 108.504 57.6738 107.999ZM51.6451 115.417L50.0806 116.83C49.8587 115.675 48.3372 114.14 48.0973 113.906C48.2262 113.398 48.2799 112.791 48.33 112.223C48.3873 111.58 48.4481 110.913 48.62 110.794C48.7918 110.675 49.583 109.484 50.8718 107.491C50.9792 108.887 52.2895 110.425 52.4828 110.646L51.6451 115.417Z" fill="white"/>
<path id="Vector_145" opacity="0.4" d="M33.0685 111.131C32.6067 114.932 28.5648 124.364 28.5648 124.364L27.8345 114.863C27.8345 114.863 24.7163 127.756 23.8392 128.221C22.9621 128.683 21.4621 131.152 20.6101 133.109C20.0409 134.425 18.1005 135.326 16.8833 135.778C17.2485 135.043 17.6244 134.237 17.9251 133.505C18.3153 132.548 18.6232 131.789 19.2533 130.927C19.3535 130.789 19.4609 130.644 19.579 130.489C20.2485 129.594 21.165 128.367 21.7843 126.819C22.1996 125.776 22.1602 123.116 22.1208 120.542C22.0958 118.691 22.0707 116.942 22.2247 115.965L22.2784 115.619C22.6793 113.065 23.5135 107.748 24.2867 106.323C25.0314 104.95 25.6185 104.785 26.6853 104.491C26.7963 104.458 26.9109 104.428 27.0326 104.392C27.4336 104.277 28.1209 104.019 28.9157 103.722C30.7057 103.052 32.9324 102.217 34.0243 102.175C35.4671 102.122 36.8167 102.495 37.0387 102.561C38.4635 101.732 40.8478 100.713 41.5244 100.746C42.0793 100.769 43.25 101.188 43.8156 101.406C41.4564 102.551 37.4576 105.283 37.4576 105.283C32.9217 106.174 33.0685 111.131 33.0685 111.131Z" fill="#33B6D8"/>
<path id="Vector_146" opacity="0.4" d="M41.0806 106.082C41.0806 106.082 43.5543 104.521 44.7143 104.019C45.8742 103.518 46.2465 101.518 45.4303 100.954C45.4016 100.934 45.3694 100.921 45.3264 100.914C45.3551 100.904 45.3837 100.894 45.4088 100.888C46.1856 100.666 47.3169 100.752 47.9327 100.822C46.4327 102.897 45.2584 104.488 44.947 104.831C43.898 105.986 41.0806 106.082 41.0806 106.082Z" fill="#33B6D8"/>
<path id="Vector_147" opacity="0.4" d="M46.9983 119.107L47.546 119.325C47.2131 120.549 46.9983 119.107 46.9983 119.107Z" fill="#33B6D8"/>
<path id="Vector_148" opacity="0.4" d="M57.6738 107.999C56.2239 107.382 53.3993 104.488 53.0449 104.125C54.842 101.346 56.6034 98.6667 57.2156 98.0232C58.4865 96.69 60.0366 92.8521 59.4065 90.9909C58.8301 89.2815 56.9435 89.5554 56.6857 89.6016L56.675 89.6742C56.675 89.6742 58.7156 89.9085 58.712 92.6277C58.7084 95.3502 53.41 100.736 53.41 100.736C53.41 100.736 47.9613 110.157 47.5997 110.015C47.2381 109.873 46.4433 116.312 46.4433 116.312C46.4433 116.312 47.9613 117.503 47.5997 119.107C47.5818 119.186 47.5639 119.259 47.546 119.325L49.8801 120.252C49.8801 120.252 52.2215 118.737 53.41 120.965C54.6022 123.189 41.997 131.152 41.0053 132.327C41.0053 132.327 40.8657 136.765 39.0256 137.419C37.8334 137.841 35.732 142.039 34.4038 144.946C36.5411 141.804 38.7821 138.699 39.738 137.986C41.306 136.815 42.0936 135.201 42.4803 134.053C42.9958 132.525 46.2858 130.64 49.4684 128.819C52.9876 126.806 56.6213 124.723 56.7502 123.001C56.8182 122.11 57.0401 120.635 57.2979 118.922C57.996 114.282 58.8624 108.504 57.6738 107.999ZM51.6451 115.417L50.0806 116.83C49.8587 115.675 48.3372 114.14 48.0973 113.906C48.2262 113.398 48.2799 112.791 48.33 112.223C48.3873 111.58 48.4481 110.913 48.62 110.794C48.7918 110.675 49.583 109.484 50.8718 107.491C50.9792 108.887 52.2895 110.425 52.4828 110.646L51.6451 115.417Z" fill="#33B6D8"/>
<g id="Group_74">
<path id="Vector_149" d="M42.4087 106.169C42.4087 106.169 43.8593 105.947 44.9476 104.832C46.0356 103.718 50.3882 98.5911 51.5971 97.1424C52.8061 95.6937 56.675 89.6755 56.675 89.6755C56.675 89.6755 58.7303 89.2297 59.3349 91.0127C59.9392 92.7957 58.4886 96.5831 57.1586 97.977C55.8287 99.3709 49.0582 110.404 48.5749 110.738C48.0912 111.073 48.4539 114.197 47.4869 114.864" stroke="#263238" stroke-miterlimit="10" stroke-linecap="round" stroke-linejoin="round"/>
<path id="Vector_150" d="M48.0117 113.926C48.0117 113.926 49.9045 115.753 50.0255 116.979L51.7181 115.453L52.5644 110.627C52.5644 110.627 50.8922 108.769 50.9423 107.246" stroke="#263238" stroke-miterlimit="10" stroke-linecap="round" stroke-linejoin="round"/>
<path id="Vector_151" d="M52.9508 104.134C52.9508 104.134 56.0704 107.395 57.642 108.064C59.2136 108.732 56.9167 119.766 56.6747 122.997C56.433 126.229 43.4978 130.793 42.4084 134.031C41.9755 135.317 41.1586 136.834 39.6879 137.931C37.59 139.497 29.4717 152.308 29.4717 152.308" stroke="#263238" stroke-miterlimit="10" stroke-linecap="round" stroke-linejoin="round"/>
<path id="Vector_152" d="M48.3633 100.954C48.3633 100.954 46.5192 100.641 45.4313 100.954C44.3433 101.266 39.7491 104.275 38.6608 104.832C37.5728 105.389 36.0008 105.501 35.6382 106.169" stroke="#263238" stroke-miterlimit="10" stroke-linecap="round" stroke-linejoin="round"/>
<path id="Vector_153" d="M44.1041 101.592C44.1041 101.592 42.2471 100.847 41.5218 100.815C40.7965 100.783 37.8949 102.046 36.5649 102.937C35.235 103.829 33.9454 104.275 33.1797 104.46" stroke="#263238" stroke-miterlimit="10" stroke-linecap="round" stroke-linejoin="round"/>
<path id="Vector_154" d="M37.0473 102.637C37.0473 102.637 35.5977 102.184 34.0261 102.245C32.4545 102.306 28.3439 104.089 27.054 104.46C25.7645 104.832 25.1599 104.869 24.354 106.355C23.5482 107.841 22.6614 113.673 22.2987 115.976C21.9361 118.28 22.5808 125.022 21.8555 126.842C21.1302 128.663 20.0086 130.017 19.3166 130.966C17.9386 132.855 18.0937 134.28 15.583 138.268" stroke="#263238" stroke-miterlimit="10" stroke-linecap="round" stroke-linejoin="round"/>
<path id="Vector_155" d="M34.127 106.671C32.5554 107.952 32.8475 110.406 33.0691 111.13C33.2907 111.855 32.3134 114.75 32.0112 116.31" stroke="#263238" stroke-miterlimit="10" stroke-linecap="round" stroke-linejoin="round"/>
<path id="Vector_156" d="M44.1041 107.896C41.2598 107.952 40.353 109.735 40.1719 110.905" stroke="#263238" stroke-miterlimit="10" stroke-linecap="round" stroke-linejoin="round"/>
<path id="Vector_157" d="M32.0112 105.278C31.1649 105.222 28.9886 106.448 28.5654 108.454" stroke="#263238" stroke-miterlimit="10" stroke-linecap="round" stroke-linejoin="round"/>
<path id="Vector_158" d="M52.5645 110.627C52.5645 110.627 52.9876 109.513 53.4108 109.401" stroke="#263238" stroke-miterlimit="10" stroke-linecap="round" stroke-linejoin="round"/>
<path id="Vector_159" d="M51.718 115.453C51.718 115.453 51.3153 116.7 50.9422 117.369C50.5696 118.038 50.9422 119.082 50.9422 119.082" stroke="#263238" stroke-miterlimit="10" stroke-linecap="round" stroke-linejoin="round"/>
<path id="Vector_160" d="M50.0255 116.979C49.965 118.094 48.6357 119.29 48.3633 119.082" stroke="#263238" stroke-miterlimit="10" stroke-linecap="round" stroke-linejoin="round"/>
<path id="Vector_161" d="M38.6422 115.085C38.6003 116.311 36.1824 125.282 36.1824 125.282" stroke="#263238" stroke-miterlimit="10" stroke-linecap="round" stroke-linejoin="round"/>
</g>
</g>
</g>
</g>
</g>
</svg>
