<svg width="15" height="15" viewBox="0 0 15 15" fill="none" xmlns="http://www.w3.org/2000/svg">
<path id="Vector" d="M7.49951 0C11.6418 0 14.9995 3.35775 14.9995 7.5C14.9995 11.6423 11.6418 15 7.49951 15C3.35726 15 -0.000488281 11.6423 -0.000488281 7.5C-0.000488281 3.35775 3.35726 0 7.49951 0ZM7.49951 1.5C5.90821 1.5 4.38209 2.13214 3.25687 3.25736C2.13165 4.38258 1.49951 5.9087 1.49951 7.5C1.49951 9.0913 2.13165 10.6174 3.25687 11.7426C4.38209 12.8679 5.90821 13.5 7.49951 13.5C9.09081 13.5 10.6169 12.8679 11.7422 11.7426C12.8674 10.6174 13.4995 9.0913 13.4995 7.5C13.4995 5.9087 12.8674 4.38258 11.7422 3.25736C10.6169 2.13214 9.09081 1.5 7.49951 1.5ZM7.49951 3C7.68321 3.00002 7.86052 3.06747 7.99779 3.18954C8.13507 3.31161 8.22277 3.47981 8.24426 3.66225L8.24951 3.75V7.1895L10.2798 9.21975C10.4143 9.35472 10.4924 9.53583 10.4982 9.72629C10.504 9.91675 10.4371 10.1023 10.3111 10.2452C10.1851 10.3881 10.0093 10.4777 9.81966 10.4958C9.62996 10.5139 9.44051 10.4591 9.28976 10.3425L9.21926 10.2802L6.96926 8.03025C6.8527 7.91358 6.77783 7.76175 6.75626 7.59825L6.74951 7.5V3.75C6.74951 3.55109 6.82853 3.36032 6.96918 3.21967C7.10983 3.07902 7.3006 3 7.49951 3Z" fill="#2A5769"/>
</svg>
