<svg width="15" height="19" viewBox="0 0 15 19" fill="none" xmlns="http://www.w3.org/2000/svg">
<path id="Vector" d="M7.49951 0.783691C9.48864 0.783691 11.3963 1.57082 12.8028 2.97191C14.2093 4.373 14.9995 6.27329 14.9995 8.25473C14.9995 11.3477 12.6328 14.5885 7.99951 18.0501C7.85527 18.1579 7.67982 18.2161 7.49951 18.2161C7.3192 18.2161 7.14376 18.1579 6.99951 18.0501C2.36618 14.5885 -0.000488281 11.3477 -0.000488281 8.25473C-0.000488281 6.27329 0.789688 4.373 2.19621 2.97191C3.60273 1.57082 5.51039 0.783691 7.49951 0.783691ZM7.49951 2.44392C5.95242 2.44392 4.46868 3.05613 3.37472 4.14587C2.28076 5.23561 1.66618 6.71361 1.66618 8.25473C1.66618 10.5043 3.43118 13.0993 7.03951 15.9798L7.49951 16.3417L7.95951 15.9798C11.5678 13.0993 13.3328 10.5043 13.3328 8.25473C13.3328 6.71361 12.7183 5.23561 11.6243 4.14587C10.5303 3.05613 9.04661 2.44392 7.49951 2.44392ZM7.49951 6.5945C7.94154 6.5945 8.36546 6.76942 8.67802 7.08077C8.99058 7.39213 9.16618 7.81441 9.16618 8.25473C9.16618 8.69505 8.99058 9.11734 8.67802 9.42869C8.36546 9.74005 7.94154 9.91496 7.49951 9.91496C7.05748 9.91496 6.63356 9.74005 6.321 9.42869C6.00844 9.11734 5.83284 8.69505 5.83284 8.25473C5.83284 7.81441 6.00844 7.39213 6.321 7.08077C6.63356 6.76942 7.05748 6.5945 7.49951 6.5945Z" fill="#2A5769"/>
</svg>
